<svg width="513" height="512" viewBox="0 0 513 512" fill="none" xmlns="http://www.w3.org/2000/svg">
<g clip-path="url(#clip0_180_2)">
<path d="M168.742 67.6482C180.974 67.6482 190.982 69.5016 198.766 73.2083C206.735 76.7296 213.778 80.8996 219.894 85.7183C223.6 88.4983 226.38 88.8689 228.234 86.8302C230.272 84.6062 231.662 79.5096 232.404 71.5403H238.798C238.427 78.3976 238.149 86.7376 237.964 96.5602C237.778 106.383 237.686 119.356 237.686 135.48H231.292C229.994 127.511 228.79 121.21 227.678 116.576C226.566 111.758 225.176 107.68 223.508 104.344C222.025 101.008 219.986 97.6722 217.392 94.3362C211.646 86.7376 204.418 81.2702 195.708 77.9342C186.997 74.4129 177.823 72.6522 168.186 72.6522C159.104 72.6522 150.857 74.9689 143.444 79.6023C136.216 84.0503 129.914 90.5369 124.54 99.0623C119.35 107.588 115.273 117.874 112.308 129.92C109.528 141.967 108.138 155.496 108.138 170.508C108.138 186.076 109.713 199.884 112.864 211.93C116.014 223.792 120.37 233.8 125.93 241.954C131.675 250.109 138.347 256.318 145.946 260.58C153.73 264.658 162.07 266.696 170.966 266.696C179.306 266.696 188.016 265.028 197.098 261.692C206.179 258.356 213.314 252.982 218.504 245.568C222.581 240.194 225.361 234.356 226.844 228.054C228.512 221.753 229.994 212.95 231.292 201.644H237.686C237.686 218.51 237.778 232.132 237.964 242.51C238.149 252.704 238.427 261.322 238.798 268.364H232.404C231.662 260.395 230.365 255.391 228.512 253.352C226.844 251.314 223.971 251.592 219.894 254.186C213.036 259.005 205.716 263.268 197.932 266.974C190.333 270.496 180.51 272.256 168.464 272.256C150.857 272.256 135.382 268.272 122.038 260.302C108.879 252.333 98.5928 240.842 91.1795 225.83C83.9515 210.818 80.3375 192.748 80.3375 171.62C80.3375 150.863 84.1368 132.7 91.7355 117.132C99.3342 101.564 109.713 89.4249 122.872 80.7143C136.216 72.0036 151.506 67.6482 168.742 67.6482ZM360.138 67.6482C372.37 67.6482 382.378 69.5016 390.162 73.2083C398.131 76.7296 405.174 80.8996 411.29 85.7183C414.997 88.4983 417.777 88.8689 419.63 86.8302C421.669 84.6062 423.059 79.5096 423.8 71.5403H430.194C429.823 78.3976 429.545 86.7376 429.36 96.5602C429.175 106.383 429.082 119.356 429.082 135.48H422.688C421.391 127.511 420.186 121.21 419.074 116.576C417.962 111.758 416.572 107.68 414.904 104.344C413.421 101.008 411.383 97.6722 408.788 94.3362C403.043 86.7376 395.815 81.2702 387.104 77.9342C378.393 74.4129 369.219 72.6522 359.582 72.6522C350.501 72.6522 342.253 74.9689 334.84 79.6023C327.612 84.0503 321.311 90.5369 315.936 99.0623C310.747 107.588 306.669 117.874 303.704 129.92C300.924 141.967 299.534 155.496 299.534 170.508C299.534 186.076 301.109 199.884 304.26 211.93C307.411 223.792 311.766 233.8 317.326 241.954C323.071 250.109 329.743 256.318 337.342 260.58C345.126 264.658 353.466 266.696 362.362 266.696C370.702 266.696 379.413 265.028 388.494 261.692C397.575 258.356 404.711 252.982 409.9 245.568C413.977 240.194 416.757 234.356 418.24 228.054C419.908 221.753 421.391 212.95 422.688 201.644H429.082C429.082 218.51 429.175 232.132 429.36 242.51C429.545 252.704 429.823 261.322 430.194 268.364H423.8C423.059 260.395 421.761 255.391 419.908 253.352C418.24 251.314 415.367 251.592 411.29 254.186C404.433 259.005 397.112 263.268 389.328 266.974C381.729 270.496 371.907 272.256 359.86 272.256C342.253 272.256 326.778 268.272 313.434 260.302C300.275 252.333 289.989 240.842 282.576 225.83C275.348 210.818 271.734 192.748 271.734 171.62C271.734 150.863 275.533 132.7 283.132 117.132C290.731 101.564 301.109 89.4249 314.268 80.7143C327.612 72.0036 342.902 67.6482 360.138 67.6482Z" fill="#E1A95F"/>
<path d="M248.674 344.048L255.043 342.154L253.228 338.364L257.462 340.259L261.697 338.364L259.882 342.154L265.326 344.048M248.674 344.048L255.043 345.943L253.228 350.364L257.462 347.838L261.697 350.364L259.882 345.943L265.326 344.048M248.674 344.048H84M265.326 344.048H430" stroke="#E1A95F" stroke-width="5" stroke-linecap="square"/>
<path d="M109.651 386.464C112.984 386.464 115.517 386.864 117.251 387.664C118.984 388.398 120.517 389.231 121.851 390.164C122.651 390.631 123.284 390.998 123.751 391.264C124.284 391.464 124.784 391.564 125.251 391.564C125.917 391.564 126.384 391.198 126.651 390.464C126.984 389.731 127.251 388.631 127.451 387.164H129.751C129.684 388.298 129.584 389.664 129.451 391.264C129.384 392.798 129.317 394.864 129.251 397.464C129.251 399.998 129.251 403.364 129.251 407.564H126.951C126.751 404.364 126.051 401.298 124.851 398.364C123.651 395.431 121.884 393.031 119.551 391.164C117.284 389.298 114.284 388.364 110.551 388.364C107.017 388.364 104.084 389.431 101.751 391.564C99.4841 393.698 98.3508 396.498 98.3508 399.964C98.3508 402.964 99.1175 405.498 100.651 407.564C102.184 409.564 104.217 411.398 106.751 413.064C109.351 414.664 112.151 416.398 115.151 418.264C118.617 420.398 121.684 422.531 124.351 424.664C127.084 426.731 129.217 429.031 130.751 431.564C132.351 434.098 133.151 437.164 133.151 440.764C133.151 445.031 132.184 448.564 130.251 451.364C128.317 454.164 125.751 456.264 122.551 457.664C119.351 459.064 115.817 459.764 111.951 459.764C108.417 459.764 105.617 459.364 103.551 458.564C101.484 457.764 99.7175 456.931 98.2508 456.064C96.7841 455.131 95.6508 454.664 94.8508 454.664C94.1841 454.664 93.6841 455.031 93.3508 455.764C93.0841 456.498 92.8508 457.598 92.6508 459.064H90.3508C90.4841 457.664 90.5508 456.031 90.5508 454.164C90.6175 452.231 90.6508 449.731 90.6508 446.664C90.7175 443.598 90.7508 439.731 90.7508 435.064H93.0508C93.3175 439.064 94.0508 442.798 95.2508 446.264C96.5175 449.731 98.4175 452.531 100.951 454.664C103.551 456.731 106.984 457.764 111.251 457.764C113.451 457.764 115.517 457.331 117.451 456.464C119.451 455.531 121.084 454.098 122.351 452.164C123.617 450.164 124.251 447.598 124.251 444.464C124.251 441.731 123.584 439.364 122.251 437.364C120.984 435.298 119.184 433.398 116.851 431.664C114.517 429.864 111.784 428.031 108.651 426.164C105.517 424.231 102.584 422.264 99.8508 420.264C97.1175 418.264 94.9175 415.964 93.2508 413.364C91.6508 410.698 90.8508 407.498 90.8508 403.764C90.8508 399.831 91.7175 396.598 93.4508 394.064C95.2508 391.464 97.5841 389.564 100.451 388.364C103.317 387.098 106.384 386.464 109.651 386.464ZM184.055 458.364V456.364C186.321 456.231 188.021 455.964 189.155 455.564C190.355 455.164 191.155 454.364 191.555 453.164C191.955 451.964 192.155 450.164 192.155 447.764V398.164C192.155 395.698 191.955 393.898 191.555 392.764C191.155 391.564 190.355 390.764 189.155 390.364C188.021 389.898 186.321 389.631 184.055 389.564V387.564C185.588 387.631 187.521 387.698 189.855 387.764C192.188 387.831 194.488 387.864 196.755 387.864C199.355 387.864 201.788 387.831 204.055 387.764C206.321 387.698 208.155 387.631 209.555 387.564V389.564C207.288 389.631 205.555 389.898 204.355 390.364C203.221 390.764 202.455 391.564 202.055 392.764C201.655 393.898 201.455 395.698 201.455 398.164V447.764C201.455 450.164 201.655 451.964 202.055 453.164C202.455 454.364 203.221 455.164 204.355 455.564C205.555 455.964 207.288 456.231 209.555 456.364V458.364C208.155 458.231 206.321 458.164 204.055 458.164C201.788 458.098 199.355 458.064 196.755 458.064C194.488 458.064 192.188 458.098 189.855 458.164C187.521 458.164 185.588 458.231 184.055 458.364ZM142.255 458.364V456.364C144.521 456.231 146.221 455.964 147.355 455.564C148.555 455.164 149.355 454.364 149.755 453.164C150.155 451.964 150.355 450.164 150.355 447.764V398.164C150.355 395.698 150.155 393.898 149.755 392.764C149.355 391.564 148.555 390.764 147.355 390.364C146.221 389.898 144.521 389.631 142.255 389.564V387.564C143.655 387.631 145.488 387.698 147.755 387.764C150.021 387.831 152.455 387.864 155.055 387.864C157.388 387.864 159.688 387.831 161.955 387.764C164.288 387.698 166.221 387.631 167.755 387.564V389.564C165.488 389.631 163.755 389.898 162.555 390.364C161.421 390.764 160.655 391.564 160.255 392.764C159.855 393.898 159.655 395.698 159.655 398.164V447.764C159.655 450.164 159.855 451.964 160.255 453.164C160.655 454.364 161.421 455.164 162.555 455.564C163.755 455.964 165.488 456.231 167.755 456.364V458.364C166.221 458.231 164.288 458.164 161.955 458.164C159.688 458.098 157.388 458.064 155.055 458.064C152.455 458.064 150.021 458.098 147.755 458.164C145.488 458.164 143.655 458.231 142.255 458.364ZM156.155 423.764V421.764H195.655V423.764H156.155ZM243.438 387.564V389.564C241.172 389.631 239.438 389.898 238.238 390.364C237.105 390.764 236.338 391.564 235.938 392.764C235.538 393.898 235.338 395.698 235.338 398.164V447.764C235.338 450.164 235.538 451.964 235.938 453.164C236.338 454.364 237.105 455.164 238.238 455.564C239.438 455.898 241.172 456.064 243.438 456.064H250.738C253.872 456.064 256.405 455.731 258.338 455.064C260.338 454.398 261.905 453.364 263.038 451.964C264.238 450.498 265.138 448.564 265.738 446.164C266.338 443.764 266.805 440.831 267.138 437.364H269.438C269.238 439.431 269.138 442.164 269.138 445.564C269.138 446.831 269.172 448.664 269.238 451.064C269.372 453.398 269.572 455.831 269.838 458.364C266.438 458.231 262.605 458.164 258.338 458.164C254.072 458.098 250.272 458.064 246.938 458.064C245.472 458.064 243.572 458.064 241.238 458.064C238.972 458.064 236.505 458.098 233.838 458.164C231.172 458.164 228.472 458.198 225.738 458.264C223.005 458.264 220.405 458.298 217.938 458.364V456.364C220.205 456.231 221.905 455.964 223.038 455.564C224.238 455.164 225.038 454.364 225.438 453.164C225.838 451.964 226.038 450.164 226.038 447.764V398.164C226.038 395.698 225.838 393.898 225.438 392.764C225.038 391.564 224.238 390.764 223.038 390.364C221.905 389.898 220.205 389.631 217.938 389.564V387.564C219.338 387.631 221.172 387.698 223.438 387.764C225.705 387.831 228.138 387.864 230.738 387.864C233.072 387.864 235.372 387.831 237.638 387.764C239.972 387.698 241.905 387.631 243.438 387.564ZM310.127 386.164C314.461 386.164 317.961 386.831 320.627 388.164C323.294 389.431 325.794 390.931 328.127 392.664C328.994 393.331 329.661 393.664 330.127 393.664C331.394 393.664 332.227 391.631 332.627 387.564H334.927C334.794 390.031 334.694 393.031 334.627 396.564C334.561 400.098 334.527 404.764 334.527 410.564H332.227C331.761 407.764 331.194 405.064 330.527 402.464C329.861 399.864 328.761 397.631 327.227 395.764C325.294 393.298 322.761 391.398 319.627 390.064C316.494 388.664 313.261 387.964 309.927 387.964C306.594 387.964 303.561 388.798 300.827 390.464C298.161 392.064 295.861 394.398 293.927 397.464C291.994 400.531 290.494 404.231 289.427 408.564C288.427 412.831 287.927 417.664 287.927 423.064C287.927 435.064 289.861 443.864 293.727 449.464C297.594 454.998 303.594 457.764 311.727 457.764C314.127 457.764 316.194 457.431 317.927 456.764C319.727 456.031 321.127 455.331 322.127 454.664C323.394 453.798 324.194 452.998 324.527 452.264C324.861 451.464 325.027 450.431 325.027 449.164V439.564C325.027 436.831 324.761 434.798 324.227 433.464C323.694 432.131 322.694 431.231 321.227 430.764C319.827 430.298 317.727 430.031 314.927 429.964V427.964C316.127 428.031 317.527 428.098 319.127 428.164C320.727 428.164 322.394 428.198 324.127 428.264C325.927 428.264 327.561 428.264 329.027 428.264C331.227 428.264 333.194 428.231 334.927 428.164C336.727 428.098 338.227 428.031 339.427 427.964V429.964C337.961 430.031 336.861 430.264 336.127 430.664C335.394 431.064 334.894 431.864 334.627 433.064C334.427 434.264 334.327 436.098 334.327 438.564V458.364H332.327C332.261 457.231 331.994 455.998 331.527 454.664C331.127 453.331 330.494 452.664 329.627 452.664C329.227 452.664 328.827 452.764 328.427 452.964C328.027 453.164 327.327 453.631 326.327 454.364C324.127 456.031 321.794 457.364 319.327 458.364C316.861 459.298 313.994 459.764 310.727 459.764C303.861 459.764 297.961 458.364 293.027 455.564C288.161 452.698 284.427 448.598 281.827 443.264C279.227 437.931 277.927 431.564 277.927 424.164C277.927 416.364 279.327 409.631 282.127 403.964C284.927 398.298 288.727 393.931 293.527 390.864C298.394 387.731 303.927 386.164 310.127 386.164ZM425.74 387.564V389.564C423.473 389.631 421.74 389.898 420.54 390.364C419.407 390.764 418.64 391.564 418.24 392.764C417.84 393.898 417.64 395.698 417.64 398.164V447.764C417.64 450.164 417.84 451.964 418.24 453.164C418.64 454.364 419.407 455.164 420.54 455.564C421.74 455.964 423.473 456.231 425.74 456.364V458.364C424.207 458.231 422.273 458.164 419.94 458.164C417.673 458.098 415.373 458.064 413.04 458.064C410.44 458.064 408.007 458.098 405.74 458.164C403.473 458.164 401.64 458.231 400.24 458.364V456.364C402.507 456.231 404.207 455.964 405.34 455.564C406.54 455.164 407.34 454.364 407.74 453.164C408.14 451.964 408.34 450.164 408.34 447.764V392.764L408.74 393.064L384.24 458.864H382.64L357.44 393.964V446.764C357.44 449.164 357.64 451.064 358.04 452.464C358.507 453.798 359.373 454.764 360.64 455.364C361.973 455.898 363.94 456.231 366.54 456.364V458.364C365.34 458.231 363.773 458.164 361.84 458.164C359.907 458.098 358.073 458.064 356.34 458.064C354.673 458.064 352.973 458.098 351.24 458.164C349.573 458.164 348.173 458.231 347.04 458.364V456.364C349.307 456.231 351.007 455.898 352.14 455.364C353.34 454.764 354.14 453.798 354.54 452.464C354.94 451.064 355.14 449.164 355.14 446.764V398.164C355.14 395.698 354.94 393.898 354.54 392.764C354.14 391.564 353.34 390.764 352.14 390.364C351.007 389.898 349.307 389.631 347.04 389.564V387.564C348.173 387.631 349.573 387.698 351.24 387.764C352.973 387.831 354.673 387.864 356.34 387.864C357.807 387.864 359.307 387.831 360.84 387.764C362.44 387.698 363.773 387.631 364.84 387.564L387.54 447.364L385.84 448.164L408.34 387.864C409.14 387.864 409.907 387.864 410.64 387.864C411.44 387.864 412.24 387.864 413.04 387.864C415.373 387.864 417.673 387.831 419.94 387.764C422.273 387.698 424.207 387.631 425.74 387.564Z" fill="#E1A95F"/>
</g>
<defs>
<clipPath id="clip0_180_2">
<rect width="512" height="512" fill="white" transform="translate(0.5)"/>
</clipPath>
</defs>
</svg>
