<?xml version="1.0" standalone="no"?>
<!DOCTYPE svg PUBLIC "-//W3C//DTD SVG 20010904//EN"
 "http://www.w3.org/TR/2001/REC-SVG-20010904/DTD/svg10.dtd">
<svg version="1.0" xmlns="http://www.w3.org/2000/svg"
 width="513.000000pt" height="513.000000pt" viewBox="0 0 513.000000 513.000000"
 preserveAspectRatio="xMidYMid meet">
<metadata>
Created by potrace 1.14, written by Peter Selinger 2001-2017
</metadata>
<g transform="translate(0.000000,513.000000) scale(0.100000,-0.100000)"
fill="#000000" stroke="none">
<path d="M1658 4455 c-2 -1 -34 -5 -73 -8 -188 -17 -384 -115 -513 -257 -171
-188 -262 -446 -266 -753 -4 -279 47 -485 164 -666 124 -192 315 -312 558
-352 72 -11 256 -15 288 -6 10 4 34 9 52 12 62 10 142 47 258 116 153 93 164
91 188 -35 11 -57 13 -60 41 -60 l30 0 -2 85 c-1 46 -2 192 -3 325 -1 132 -5
245 -8 250 -7 10 -47 13 -56 4 -2 -3 -7 -24 -10 -46 -24 -204 -60 -311 -138
-408 -48 -62 -86 -90 -166 -127 -186 -86 -419 -82 -564 10 -152 97 -251 250
-312 486 -8 33 -18 78 -21 100 -3 22 -8 51 -11 65 -10 40 -12 348 -4 430 42
412 209 689 460 765 168 50 425 -10 559 -131 99 -89 145 -181 181 -360 13 -60
28 -112 34 -116 6 -4 20 -6 31 -4 23 3 21 -24 27 391 l3 250 -30 0 c-28 0 -30
-3 -42 -64 -13 -66 -35 -101 -61 -101 -9 0 -52 25 -97 55 -147 99 -264 140
-417 148 -43 2 -79 3 -80 2z"/>
<path d="M3495 4448 c-137 -16 -241 -54 -360 -133 -262 -173 -416 -503 -418
-890 -1 -404 134 -709 391 -881 93 -63 232 -113 357 -129 59 -8 238 -8 263 -1
9 3 33 7 54 10 69 10 169 58 311 150 33 21 67 36 80 34 26 -4 55 -59 59 -113
2 -39 11 -49 45 -51 l23 -1 -6 326 c-3 179 -7 331 -9 337 -3 10 -51 12 -60 2
-2 -2 -6 -32 -9 -68 -11 -111 -44 -239 -78 -303 -42 -78 -128 -164 -203 -201
-146 -71 -338 -90 -476 -47 -153 48 -289 187 -365 375 -71 175 -98 336 -97
576 0 95 4 146 18 276 7 64 51 223 84 302 81 197 226 336 388 373 174 40 426
-27 544 -144 95 -95 138 -179 170 -335 10 -53 21 -107 24 -118 4 -17 12 -21
35 -20 l30 1 1 150 c0 82 2 227 5 320 l4 170 -30 1 c-16 1 -30 -1 -31 -5 -9
-67 -26 -129 -42 -148 -17 -23 -46 -14 -120 37 -187 127 -365 172 -582 148z"/>
<path d="M2630 1780 c-43 -24 -62 -24 -101 -4 -37 19 -47 12 -29 -21 7 -14 10
-28 6 -32 -4 -4 -382 -8 -841 -8 -585 0 -837 -3 -845 -11 -6 -6 -8 -17 -5 -25
5 -12 123 -14 828 -14 452 0 832 -1 845 -4 24 -4 24 -2 6 -70 l-7 -23 41 26
c49 31 47 31 80 8 15 -10 35 -21 44 -25 15 -5 15 -2 -2 36 -10 23 -17 44 -14
46 3 3 382 6 842 7 460 1 840 2 844 3 3 0 5 9 3 19 -2 9 -4 19 -4 22 -1 3
-375 5 -832 5 -457 0 -836 3 -842 7 -8 5 -6 17 6 42 9 20 16 36 14 36 -1 -1
-18 -9 -37 -20z"/>
<path d="M1035 1255 c-37 -10 -59 -24 -87 -55 -34 -38 -38 -48 -38 -97 0 -101
26 -135 187 -243 114 -76 143 -112 143 -181 0 -113 -130 -165 -229 -91 -37 27
-65 84 -76 150 -4 23 -11 42 -16 42 -5 0 -9 -19 -10 -42 0 -24 -2 -78 -3 -120
-1 -58 1 -78 11 -78 7 0 13 7 13 15 0 26 26 27 71 4 32 -16 63 -22 114 -23
133 -2 215 70 215 188 0 88 -36 132 -194 233 -54 36 -105 70 -111 77 -58 58
-49 162 17 197 38 20 111 15 147 -10 35 -26 66 -79 76 -134 8 -43 25 -49 25
-9 1 15 2 62 4 105 2 60 0 77 -10 77 -8 0 -14 -8 -14 -18 0 -31 -10 -32 -62
-6 -60 30 -108 36 -173 19z"/>
<path d="M3013 1256 c-145 -46 -228 -173 -232 -356 -5 -218 109 -356 301 -365
75 -4 115 6 168 42 44 29 58 29 66 -2 3 -14 11 -25 18 -25 8 0 11 36 11 126
-1 130 6 154 41 154 8 0 13 4 10 9 -8 12 -246 13 -246 2 0 -5 18 -12 40 -16
24 -4 44 -14 50 -25 6 -10 10 -56 10 -102 0 -70 -3 -88 -20 -106 -27 -28 -92
-45 -149 -37 -141 19 -204 134 -197 360 4 125 21 192 66 253 53 74 130 96 224
67 70 -22 104 -59 131 -142 12 -37 26 -68 31 -70 5 -2 9 47 9 112 0 63 -4 116
-9 117 -5 2 -10 -4 -12 -14 -1 -9 -6 -23 -11 -32 -8 -14 -13 -13 -44 8 -77 52
-172 68 -256 42z"/>
<path d="M1430 1252 c-18 -6 0 -22 25 -22 47 0 51 -29 49 -344 -1 -267 -3
-290 -20 -303 -10 -7 -28 -13 -41 -13 -13 0 -23 -4 -23 -10 0 -11 -2 -11 85
-11 150 0 175 1 175 11 0 6 -13 10 -30 10 -45 0 -53 26 -54 177 0 73 3 135 6
138 5 5 226 9 301 6 15 -1 17 -15 17 -143 0 -79 -4 -149 -9 -156 -4 -7 -20
-16 -34 -20 -72 -19 18 -28 216 -22 20 0 -7 20 -27 20 -49 0 -50 11 -50 330 0
319 1 330 50 330 24 0 45 19 22 21 -17 1 -231 1 -240 0 -20 -2 -5 -21 16 -21
50 0 56 -19 56 -174 l0 -143 -163 0 -162 -1 1 145 c2 157 6 171 57 175 24 2
39 17 20 19 -29 3 -235 3 -243 1z"/>
<path d="M2184 1251 c-11 -11 -2 -21 19 -21 53 -1 52 4 55 -324 3 -331 2 -336
-54 -336 -13 0 -24 -6 -24 -12 0 -10 55 -13 247 -11 137 1 253 3 259 3 15 0
13 210 -2 210 -6 0 -14 -19 -18 -42 -12 -80 -25 -104 -67 -127 -35 -20 -51
-22 -134 -19 -51 1 -97 7 -102 11 -4 5 -8 145 -8 311 0 325 2 336 51 336 21 0
46 19 27 21 -38 3 -246 3 -249 0z"/>
<path d="M3474 1251 c-11 -11 -2 -21 20 -21 55 0 56 -6 56 -329 0 -276 -1
-299 -18 -314 -10 -10 -28 -17 -40 -17 -24 0 -30 -16 -9 -21 6 -2 53 -2 102 1
85 5 94 11 33 24 -16 4 -30 15 -34 29 -10 29 -12 557 -2 563 5 3 8 -1 8 -8 0
-25 235 -610 245 -610 9 0 28 45 79 182 7 19 46 126 87 237 41 111 76 198 79
193 3 -4 5 -133 4 -286 -1 -257 -2 -278 -19 -291 -11 -7 -29 -13 -42 -13 -13
0 -23 -4 -23 -10 0 -6 50 -10 131 -10 84 0 128 4 124 10 -3 6 -14 10 -24 10
-9 0 -26 6 -36 14 -17 13 -19 32 -18 314 0 321 1 328 49 334 14 2 23 7 22 13
-3 8 -52 10 -144 6 -19 -1 -35 -37 -124 -278 -95 -257 -120 -316 -120 -285 0
12 -194 528 -207 551 -6 9 -33 14 -92 15 -45 0 -85 -1 -87 -3z"/>
</g>
</svg>
