<svg width="789" height="171" viewBox="0 0 789 171" fill="none" xmlns="http://www.w3.org/2000/svg">
<g clip-path="url(#clip0_176_3)">
<path d="M47.8005 46.584C53.4325 46.584 58.0405 47.4373 61.6245 49.144C65.2938 50.7653 68.5365 52.6853 71.3525 54.904C73.0592 56.184 74.3392 56.3547 75.1925 55.416C76.1312 54.392 76.7712 52.0453 77.1125 48.376H80.0565C79.8858 51.5333 79.7578 55.3733 79.6725 59.896C79.5872 64.4187 79.5445 70.392 79.5445 77.816H76.6005C76.0032 74.1467 75.4485 71.2453 74.9365 69.112C74.4245 66.8933 73.7845 65.016 73.0165 63.48C72.3338 61.944 71.3952 60.408 70.2005 58.872C67.5552 55.3733 64.2272 52.856 60.2165 51.32C56.2058 49.6987 51.9818 48.888 47.5445 48.888C43.3632 48.888 39.5658 49.9547 36.1525 52.088C32.8245 54.136 29.9232 57.1227 27.4485 61.048C25.0592 64.9733 23.1818 69.7093 21.8165 75.256C20.5365 80.8027 19.8965 87.032 19.8965 93.944C19.8965 101.112 20.6218 107.469 22.0725 113.016C23.5232 118.477 25.5285 123.085 28.0885 126.84C30.7338 130.595 33.8058 133.453 37.3045 135.416C40.8885 137.293 44.7285 138.232 48.8245 138.232C52.6645 138.232 56.6752 137.464 60.8565 135.928C65.0378 134.392 68.3232 131.917 70.7125 128.504C72.5898 126.029 73.8698 123.341 74.5525 120.44C75.3205 117.539 76.0032 113.485 76.6005 108.28H79.5445C79.5445 116.045 79.5872 122.317 79.6725 127.096C79.7578 131.789 79.8858 135.757 80.0565 139H77.1125C76.7712 135.331 76.1738 133.027 75.3205 132.088C74.5525 131.149 73.2298 131.277 71.3525 132.472C68.1952 134.691 64.8245 136.653 61.2405 138.36C57.7418 139.981 53.2192 140.792 47.6725 140.792C39.5658 140.792 32.4405 138.957 26.2965 135.288C20.2378 131.619 15.5018 126.328 12.0885 119.416C8.7605 112.504 7.0965 104.184 7.0965 94.456C7.0965 84.8987 8.84583 76.536 12.3445 69.368C15.8432 62.2 20.6218 56.6107 26.6805 52.6C32.8245 48.5893 39.8645 46.584 47.8005 46.584ZM123.254 71.288C130.763 71.288 136.608 73.592 140.79 78.2C145.056 82.7227 147.19 89.8053 147.19 99.448H102.006L101.878 97.016H134.902C135.072 92.8347 134.731 88.9947 133.878 85.496C133.024 81.912 131.659 79.0533 129.782 76.92C127.99 74.7867 125.643 73.72 122.742 73.72C118.816 73.72 115.318 75.6827 112.246 79.608C109.259 83.5333 107.467 89.7627 106.87 98.296L107.253 98.808C107.083 100.088 106.955 101.496 106.87 103.032C106.784 104.568 106.742 106.104 106.742 107.64C106.742 113.443 107.68 118.435 109.558 122.616C111.435 126.797 113.867 129.997 116.854 132.216C119.926 134.349 123.083 135.416 126.326 135.416C128.886 135.416 131.318 135.032 133.622 134.264C135.926 133.411 138.059 132.045 140.022 130.168C141.984 128.291 143.691 125.773 145.142 122.616L147.702 123.64C146.763 126.456 145.227 129.187 143.094 131.832C140.96 134.477 138.272 136.653 135.03 138.36C131.787 139.981 128.032 140.792 123.766 140.792C117.622 140.792 112.331 139.384 107.894 136.568C103.542 133.752 100.171 129.869 97.7815 124.92C95.4775 119.885 94.3255 114.125 94.3255 107.64C94.3255 100.131 95.5202 93.688 97.9095 88.312C100.299 82.8507 103.67 78.6693 108.022 75.768C112.374 72.7813 117.451 71.288 123.254 71.288ZM177.252 38.648V127.096C177.252 130.68 177.977 133.112 179.428 134.392C180.964 135.672 183.481 136.312 186.979 136.312V139C185.529 138.915 183.31 138.829 180.324 138.744C177.422 138.573 174.478 138.488 171.492 138.488C168.59 138.488 165.646 138.573 162.66 138.744C159.673 138.829 157.454 138.915 156.004 139V136.312C159.502 136.312 161.977 135.672 163.428 134.392C164.964 133.112 165.732 130.68 165.732 127.096V54.008C165.732 50.168 165.049 47.352 163.684 45.56C162.318 43.6827 159.758 42.744 156.004 42.744V40.056C158.734 40.312 161.38 40.44 163.94 40.44C166.414 40.44 168.761 40.312 170.98 40.056C173.284 39.7147 175.374 39.2453 177.252 38.648ZM223.379 71.288C230.888 71.288 236.733 73.592 240.915 78.2C245.181 82.7227 247.315 89.8053 247.315 99.448H202.131L202.003 97.016H235.027C235.197 92.8347 234.856 88.9947 234.003 85.496C233.149 81.912 231.784 79.0533 229.907 76.92C228.115 74.7867 225.768 73.72 222.867 73.72C218.941 73.72 215.443 75.6827 212.371 79.608C209.384 83.5333 207.592 89.7627 206.995 98.296L207.378 98.808C207.208 100.088 207.08 101.496 206.995 103.032C206.909 104.568 206.867 106.104 206.867 107.64C206.867 113.443 207.805 118.435 209.683 122.616C211.56 126.797 213.992 129.997 216.979 132.216C220.051 134.349 223.208 135.416 226.451 135.416C229.011 135.416 231.443 135.032 233.747 134.264C236.051 133.411 238.184 132.045 240.147 130.168C242.109 128.291 243.816 125.773 245.267 122.616L247.827 123.64C246.888 126.456 245.352 129.187 243.219 131.832C241.085 134.477 238.397 136.653 235.155 138.36C231.912 139.981 228.157 140.792 223.891 140.792C217.747 140.792 212.456 139.384 208.019 136.568C203.667 133.752 200.296 129.869 197.907 124.92C195.603 119.885 194.451 114.125 194.451 107.64C194.451 100.131 195.645 93.688 198.035 88.312C200.424 82.8507 203.795 78.6693 208.147 75.768C212.499 72.7813 217.576 71.288 223.379 71.288ZM279.937 71.288C283.35 71.288 286.251 71.8427 288.641 72.952C291.03 74.0613 292.779 75.0853 293.889 76.024C296.705 78.328 298.411 76.792 299.009 71.416H301.953C301.782 73.8053 301.654 76.664 301.569 79.992C301.483 83.2347 301.441 87.6293 301.441 93.176H298.497C297.985 90.0187 297.089 86.9467 295.809 83.96C294.614 80.9733 292.822 78.5413 290.433 76.664C288.043 74.7013 284.929 73.72 281.089 73.72C278.102 73.72 275.585 74.5733 273.537 76.28C271.574 77.9013 270.593 80.3333 270.593 83.576C270.593 86.136 271.361 88.3547 272.897 90.232C274.433 92.024 276.438 93.7307 278.913 95.352C281.387 96.888 284.075 98.5947 286.977 100.472C290.219 102.52 293.163 104.611 295.809 106.744C298.454 108.877 300.545 111.224 302.081 113.784C303.702 116.344 304.513 119.373 304.513 122.872C304.513 126.797 303.489 130.083 301.441 132.728C299.393 135.373 296.705 137.379 293.377 138.744C290.134 140.109 286.55 140.792 282.625 140.792C280.747 140.792 278.955 140.621 277.249 140.28C275.627 140.024 274.049 139.597 272.513 139C271.659 138.573 270.763 138.061 269.825 137.464C268.971 136.867 268.118 136.227 267.265 135.544C266.411 134.861 265.643 134.904 264.961 135.672C264.278 136.355 263.766 137.763 263.425 139.896H260.481C260.651 137.165 260.779 133.837 260.865 129.912C260.95 125.987 260.993 120.781 260.993 114.296H263.937C264.534 119.075 265.387 123.256 266.497 126.84C267.606 130.424 269.355 133.24 271.745 135.288C274.134 137.251 277.462 138.232 281.729 138.232C283.435 138.232 285.142 137.848 286.849 137.08C288.641 136.312 290.134 135.032 291.329 133.24C292.523 131.448 293.121 129.059 293.121 126.072C293.121 122.317 291.755 119.245 289.025 116.856C286.294 114.467 282.838 111.949 278.657 109.304C275.585 107.341 272.683 105.379 269.953 103.416C267.307 101.453 265.131 99.2347 263.425 96.76C261.803 94.2853 260.993 91.2987 260.993 87.8C260.993 83.96 261.846 80.8453 263.553 78.456C265.345 75.9813 267.691 74.1893 270.593 73.08C273.494 71.8853 276.609 71.288 279.937 71.288ZM334.883 51.832V73.208H353.827V75.768H334.883V125.304C334.883 129.315 335.608 132.131 337.059 133.752C338.509 135.373 340.515 136.184 343.075 136.184C345.635 136.184 347.853 135.16 349.731 133.112C351.608 130.979 353.229 127.437 354.595 122.488L357.155 123.128C356.301 128.077 354.595 132.259 352.035 135.672C349.56 139.085 345.72 140.792 340.515 140.792C337.613 140.792 335.224 140.408 333.347 139.64C331.469 138.957 329.805 137.933 328.355 136.568C326.477 134.605 325.155 132.259 324.387 129.528C323.704 126.797 323.363 123.171 323.363 118.648V75.768H311.075V73.208H323.363V53.624C325.496 53.5387 327.544 53.368 329.507 53.112C331.469 52.856 333.261 52.4293 334.883 51.832ZM374.117 41.08C376.335 41.08 378.255 41.8907 379.877 43.512C381.498 45.1333 382.309 47.0533 382.309 49.272C382.309 51.4907 381.498 53.4107 379.877 55.032C378.255 56.6533 376.335 57.464 374.117 57.464C371.898 57.464 369.978 56.6533 368.357 55.032C366.735 53.4107 365.925 51.4907 365.925 49.272C365.925 47.0533 366.735 45.1333 368.357 43.512C369.978 41.8907 371.898 41.08 374.117 41.08ZM380.773 71.672V127.096C380.773 130.68 381.498 133.112 382.949 134.392C384.485 135.672 387.002 136.312 390.501 136.312V139C389.05 138.915 386.831 138.829 383.845 138.744C380.943 138.573 377.999 138.488 375.013 138.488C372.111 138.488 369.167 138.573 366.181 138.744C363.194 138.829 360.975 138.915 359.525 139V136.312C363.023 136.312 365.498 135.672 366.949 134.392C368.485 133.112 369.253 130.68 369.253 127.096V87.032C369.253 83.192 368.57 80.376 367.205 78.584C365.839 76.7067 363.279 75.768 359.525 75.768V73.08C362.255 73.336 364.901 73.464 367.461 73.464C369.935 73.464 372.282 73.336 374.501 73.08C376.805 72.7387 378.895 72.2693 380.773 71.672ZM415.201 139.896C411.702 139.896 408.673 139.256 406.113 137.976C403.553 136.611 401.59 134.733 400.225 132.344C398.945 129.955 398.305 127.181 398.305 124.024C398.305 120.269 399.158 117.197 400.865 114.808C402.657 112.419 404.918 110.499 407.649 109.048C410.379 107.597 413.238 106.403 416.225 105.464C419.297 104.44 422.198 103.501 424.929 102.648C427.659 101.709 429.878 100.643 431.585 99.448C433.377 98.2533 434.273 96.6747 434.273 94.712V86.776C434.273 83.192 433.718 80.4613 432.609 78.584C431.585 76.7067 430.177 75.4693 428.385 74.872C426.593 74.1893 424.587 73.848 422.369 73.848C420.235 73.848 417.931 74.1467 415.457 74.744C413.067 75.3413 411.147 76.5787 409.697 78.456C411.318 78.7973 412.726 79.6507 413.921 81.016C415.115 82.3813 415.713 84.1307 415.713 86.264C415.713 88.3973 415.03 90.104 413.665 91.384C412.299 92.5787 410.55 93.176 408.417 93.176C405.942 93.176 404.107 92.408 402.913 90.872C401.803 89.2507 401.249 87.4587 401.249 85.496C401.249 83.2773 401.803 81.4853 402.913 80.12C404.022 78.7547 405.43 77.4747 407.137 76.28C409.099 74.9147 411.617 73.7627 414.689 72.824C417.846 71.8 421.387 71.288 425.312 71.288C428.811 71.288 431.798 71.7147 434.273 72.568C436.747 73.336 438.795 74.488 440.417 76.024C442.635 78.072 444.086 80.5893 444.769 83.576C445.451 86.4773 445.793 89.976 445.793 94.072V129.656C445.793 131.789 446.091 133.325 446.689 134.264C447.371 135.203 448.395 135.672 449.761 135.672C450.699 135.672 451.595 135.459 452.449 135.032C453.302 134.605 454.326 133.923 455.521 132.984L456.929 135.16C455.137 136.525 453.43 137.677 451.809 138.616C450.187 139.469 448.011 139.896 445.281 139.896C442.806 139.896 440.758 139.469 439.137 138.616C437.515 137.763 436.278 136.525 435.425 134.904C434.657 133.197 434.273 131.064 434.273 128.504C431.969 132.344 429.195 135.203 425.953 137.08C422.795 138.957 419.211 139.896 415.201 139.896ZM419.809 134.776C422.625 134.776 425.227 133.965 427.617 132.344C430.091 130.723 432.31 128.291 434.273 125.048V99.96C433.249 101.411 431.755 102.648 429.793 103.672C427.83 104.611 425.697 105.592 423.393 106.616C421.089 107.555 418.87 108.707 416.737 110.072C414.689 111.352 412.982 113.059 411.617 115.192C410.251 117.325 409.569 120.099 409.569 123.512C409.569 126.925 410.465 129.656 412.257 131.704C414.134 133.752 416.651 134.776 419.809 134.776ZM481.127 38.648V127.096C481.127 130.68 481.852 133.112 483.303 134.392C484.839 135.672 487.356 136.312 490.854 136.312V139C489.404 138.915 487.185 138.829 484.199 138.744C481.297 138.573 478.353 138.488 475.367 138.488C472.465 138.488 469.521 138.573 466.535 138.744C463.548 138.829 461.329 138.915 459.879 139V136.312C463.377 136.312 465.852 135.672 467.303 134.392C468.839 133.112 469.607 130.68 469.607 127.096V54.008C469.607 50.168 468.924 47.352 467.559 45.56C466.193 43.6827 463.633 42.744 459.879 42.744V40.056C462.609 40.312 465.255 40.44 467.815 40.44C470.289 40.44 472.636 40.312 474.855 40.056C477.159 39.7147 479.249 39.2453 481.127 38.648ZM573.051 46.584C578.683 46.584 583.291 47.4373 586.875 49.144C590.544 50.7653 593.787 52.6853 596.603 54.904C598.309 56.184 599.589 56.3547 600.443 55.416C601.381 54.392 602.021 52.0453 602.363 48.376H605.307C605.136 51.5333 605.008 55.3733 604.923 59.896C604.837 64.4187 604.795 70.392 604.795 77.816H601.851C601.253 74.1467 600.699 71.2453 600.187 69.112C599.675 66.8933 599.035 65.016 598.267 63.48C597.584 61.944 596.645 60.408 595.451 58.872C592.805 55.3733 589.477 52.856 585.467 51.32C581.456 49.6987 577.232 48.888 572.795 48.888C568.613 48.888 564.816 49.9547 561.403 52.088C558.075 54.136 555.173 57.1227 552.699 61.048C550.309 64.9733 548.432 69.7093 547.067 75.256C545.787 80.8027 545.147 87.032 545.147 93.944C545.147 101.112 545.872 107.469 547.323 113.016C548.773 118.477 550.779 123.085 553.339 126.84C555.984 130.595 559.056 133.453 562.555 135.416C566.139 137.293 569.979 138.232 574.075 138.232C577.915 138.232 581.925 137.464 586.107 135.928C590.288 134.392 593.573 131.917 595.963 128.504C597.84 126.029 599.12 123.341 599.803 120.44C600.571 117.539 601.253 113.485 601.851 108.28H604.795C604.795 116.045 604.837 122.317 604.923 127.096C605.008 131.789 605.136 135.757 605.307 139H602.363C602.021 135.331 601.424 133.027 600.571 132.088C599.803 131.149 598.48 131.277 596.603 132.472C593.445 134.691 590.075 136.653 586.491 138.36C582.992 139.981 578.469 140.792 572.923 140.792C564.816 140.792 557.691 138.957 551.547 135.288C545.488 131.619 540.752 126.328 537.339 119.416C534.011 112.504 532.347 104.184 532.347 94.456C532.347 84.8987 534.096 76.536 537.595 69.368C541.093 62.2 545.872 56.6107 551.931 52.6C558.075 48.5893 565.115 46.584 573.051 46.584ZM637.496 38.776V86.648C639.714 80.8453 642.786 76.8347 646.712 74.616C650.722 72.3973 654.904 71.288 659.256 71.288C662.498 71.288 665.186 71.7147 667.32 72.568C669.538 73.4213 671.373 74.616 672.824 76.152C674.445 77.8587 675.597 79.992 676.28 82.552C676.962 85.112 677.304 88.568 677.304 92.92V127.096C677.304 130.68 678.029 133.112 679.479 134.392C681.016 135.672 683.533 136.312 687.032 136.312V139C685.581 138.915 683.362 138.829 680.376 138.744C677.389 138.573 674.488 138.488 671.672 138.488C668.856 138.488 666.082 138.573 663.352 138.744C660.706 138.829 658.701 138.915 657.336 139V136.312C660.408 136.312 662.584 135.672 663.864 134.392C665.144 133.112 665.784 130.68 665.784 127.096V90.104C665.784 87.4587 665.57 85.0267 665.144 82.808C664.717 80.5893 663.736 78.7973 662.2 77.432C660.749 76.0667 658.488 75.384 655.416 75.384C651.917 75.384 648.802 76.3653 646.072 78.328C643.426 80.2907 641.336 83.0213 639.8 86.52C638.264 90.0187 637.496 94.0293 637.496 98.552V127.096C637.496 130.68 638.136 133.112 639.416 134.392C640.696 135.672 642.872 136.312 645.944 136.312V139C644.578 138.915 642.53 138.829 639.8 138.744C637.154 138.573 634.424 138.488 631.608 138.488C628.792 138.488 625.89 138.573 622.904 138.744C619.917 138.829 617.698 138.915 616.248 139V136.312C619.746 136.312 622.221 135.672 623.672 134.392C625.208 133.112 625.976 130.68 625.976 127.096V54.136C625.976 50.296 625.293 47.48 623.928 45.688C622.562 43.8107 620.002 42.872 616.248 42.872V40.184C618.978 40.44 621.624 40.568 624.184 40.568C626.658 40.568 629.005 40.44 631.224 40.184C633.528 39.8427 635.618 39.3733 637.496 38.776ZM707.242 41.08C709.46 41.08 711.38 41.8907 713.002 43.512C714.623 45.1333 715.434 47.0533 715.434 49.272C715.434 51.4907 714.623 53.4107 713.002 55.032C711.38 56.6533 709.46 57.464 707.242 57.464C705.023 57.464 703.103 56.6533 701.482 55.032C699.86 53.4107 699.05 51.4907 699.05 49.272C699.05 47.0533 699.86 45.1333 701.482 43.512C703.103 41.8907 705.023 41.08 707.242 41.08ZM713.898 71.672V127.096C713.898 130.68 714.623 133.112 716.074 134.392C717.61 135.672 720.127 136.312 723.626 136.312V139C722.175 138.915 719.956 138.829 716.97 138.744C714.068 138.573 711.124 138.488 708.138 138.488C705.236 138.488 702.292 138.573 699.306 138.744C696.319 138.829 694.1 138.915 692.65 139V136.312C696.148 136.312 698.623 135.672 700.074 134.392C701.61 133.112 702.378 130.68 702.378 127.096V87.032C702.378 83.192 701.695 80.376 700.33 78.584C698.964 76.7067 696.404 75.768 692.65 75.768V73.08C695.38 73.336 698.026 73.464 700.586 73.464C703.06 73.464 705.407 73.336 707.626 73.08C709.93 72.7387 712.02 72.2693 713.898 71.672ZM762.15 71.288C764.88 71.288 767.526 71.6293 770.086 72.312C772.646 72.9947 774.95 74.0187 776.998 75.384C778.96 76.664 780.454 78.1573 781.478 79.864C782.502 81.4853 783.014 83.2773 783.014 85.24C783.014 87.544 782.374 89.336 781.094 90.616C779.814 91.8107 778.192 92.408 776.23 92.408C774.352 92.408 772.688 91.8533 771.238 90.744C769.872 89.6347 769.19 88.056 769.19 86.008C769.19 84.0453 769.702 82.4667 770.726 81.272C771.835 80.0773 773.115 79.3093 774.566 78.968C773.712 77.432 772.176 76.152 769.958 75.128C767.824 74.104 765.52 73.592 763.046 73.592C760.912 73.592 758.779 74.104 756.646 75.128C754.512 76.152 752.55 77.8587 750.758 80.248C748.966 82.552 747.515 85.752 746.406 89.848C745.296 93.8587 744.742 98.8933 744.742 104.952C744.742 112.461 745.595 118.435 747.302 122.872C749.008 127.309 751.227 130.509 753.958 132.472C756.774 134.349 759.846 135.288 763.174 135.288C765.392 135.288 767.654 134.861 769.958 134.008C772.262 133.155 774.438 131.789 776.486 129.912C778.534 127.949 780.283 125.347 781.734 122.104L784.166 123C783.312 125.731 781.904 128.504 779.942 131.32C777.979 134.051 775.419 136.312 772.262 138.104C769.104 139.896 765.222 140.792 760.614 140.792C755.323 140.792 750.544 139.427 746.278 136.696C742.011 133.965 738.598 130.083 736.038 125.048C733.563 119.928 732.326 113.869 732.326 106.872C732.326 99.8747 733.563 93.7307 736.038 88.44C738.598 83.064 742.139 78.8827 746.662 75.896C751.184 72.824 756.347 71.288 762.15 71.288Z" fill="#E1A95F"/>
</g>
<defs>
<clipPath id="clip0_176_3">
<rect width="789" height="171" fill="white"/>
</clipPath>
</defs>
</svg>
