<svg width="512" height="512" viewBox="0 0 512 512" fill="none" xmlns="http://www.w3.org/2000/svg">
<g clip-path="url(#clip0_180_2)">
<path d="M168.242 67.6482C180.474 67.6482 190.482 69.5016 198.266 73.2083C206.235 76.7296 213.278 80.8996 219.394 85.7183C223.1 88.4983 225.88 88.8689 227.734 86.8302C229.772 84.6062 231.162 79.5096 231.904 71.5403H238.298C237.927 78.3976 237.649 86.7376 237.464 96.5602C237.278 106.383 237.186 119.356 237.186 135.48H230.792C229.494 127.511 228.29 121.21 227.178 116.576C226.066 111.758 224.676 107.68 223.008 104.344C221.525 101.008 219.486 97.6722 216.892 94.3362C211.146 86.7376 203.918 81.2702 195.208 77.9342C186.497 74.4129 177.323 72.6522 167.686 72.6522C158.604 72.6522 150.357 74.9689 142.944 79.6023C135.716 84.0503 129.414 90.5369 124.04 99.0623C118.85 107.588 114.773 117.874 111.808 129.92C109.028 141.967 107.638 155.496 107.638 170.508C107.638 186.076 109.213 199.884 112.364 211.93C115.514 223.792 119.87 233.8 125.43 241.954C131.175 250.109 137.847 256.318 145.446 260.58C153.23 264.658 161.57 266.696 170.466 266.696C178.806 266.696 187.516 265.028 196.598 261.692C205.679 258.356 212.814 252.982 218.004 245.568C222.081 240.194 224.861 234.356 226.344 228.054C228.012 221.753 229.494 212.95 230.792 201.644H237.186C237.186 218.51 237.278 232.132 237.464 242.51C237.649 252.704 237.927 261.322 238.298 268.364H231.904C231.162 260.395 229.865 255.391 228.012 253.352C226.344 251.314 223.471 251.592 219.394 254.186C212.536 259.005 205.216 263.268 197.432 266.974C189.833 270.496 180.01 272.256 167.964 272.256C150.357 272.256 134.882 268.272 121.538 260.302C108.379 252.333 98.0928 240.842 90.6795 225.83C83.4515 210.818 79.8375 192.748 79.8375 171.62C79.8375 150.863 83.6368 132.7 91.2355 117.132C98.8342 101.564 109.213 89.4249 122.372 80.7143C135.716 72.0036 151.006 67.6482 168.242 67.6482ZM359.638 67.6482C371.87 67.6482 381.878 69.5016 389.662 73.2083C397.631 76.7296 404.674 80.8996 410.79 85.7183C414.497 88.4983 417.277 88.8689 419.13 86.8302C421.169 84.6062 422.559 79.5096 423.3 71.5403H429.694C429.323 78.3976 429.045 86.7376 428.86 96.5602C428.675 106.383 428.582 119.356 428.582 135.48H422.188C420.891 127.511 419.686 121.21 418.574 116.576C417.462 111.758 416.072 107.68 414.404 104.344C412.921 101.008 410.883 97.6722 408.288 94.3362C402.543 86.7376 395.315 81.2702 386.604 77.9342C377.893 74.4129 368.719 72.6522 359.082 72.6522C350.001 72.6522 341.753 74.9689 334.34 79.6023C327.112 84.0503 320.811 90.5369 315.436 99.0623C310.247 107.588 306.169 117.874 303.204 129.92C300.424 141.967 299.034 155.496 299.034 170.508C299.034 186.076 300.609 199.884 303.76 211.93C306.911 223.792 311.266 233.8 316.826 241.954C322.571 250.109 329.243 256.318 336.842 260.58C344.626 264.658 352.966 266.696 361.862 266.696C370.202 266.696 378.913 265.028 387.994 261.692C397.075 258.356 404.211 252.982 409.4 245.568C413.477 240.194 416.257 234.356 417.74 228.054C419.408 221.753 420.891 212.95 422.188 201.644H428.582C428.582 218.51 428.675 232.132 428.86 242.51C429.045 252.704 429.323 261.322 429.694 268.364H423.3C422.559 260.395 421.261 255.391 419.408 253.352C417.74 251.314 414.867 251.592 410.79 254.186C403.933 259.005 396.612 263.268 388.828 266.974C381.229 270.496 371.407 272.256 359.36 272.256C341.753 272.256 326.278 268.272 312.934 260.302C299.775 252.333 289.489 240.842 282.076 225.83C274.848 210.818 271.234 192.748 271.234 171.62C271.234 150.863 275.033 132.7 282.632 117.132C290.231 101.564 300.609 89.4249 313.768 80.7143C327.112 72.0036 342.402 67.6482 359.638 67.6482Z" fill="#E1A95F"/>
<path d="M248.174 344.048L254.543 342.154L252.728 338.364L256.962 340.259L261.197 338.364L259.382 342.154L264.826 344.048M248.174 344.048L254.543 345.943L252.728 350.364L256.962 347.838L261.197 350.364L259.382 345.943L264.826 344.048M248.174 344.048H83.5M264.826 344.048H429.5" stroke="#E1A95F" stroke-width="5" stroke-linecap="square"/>
<path d="M109.151 386.464C112.484 386.464 115.017 386.864 116.751 387.664C118.484 388.398 120.017 389.231 121.351 390.164C122.151 390.631 122.784 390.998 123.251 391.264C123.784 391.464 124.284 391.564 124.751 391.564C125.417 391.564 125.884 391.198 126.151 390.464C126.484 389.731 126.751 388.631 126.951 387.164H129.251C129.184 388.298 129.084 389.664 128.951 391.264C128.884 392.798 128.817 394.864 128.751 397.464C128.751 399.998 128.751 403.364 128.751 407.564H126.451C126.251 404.364 125.551 401.298 124.351 398.364C123.151 395.431 121.384 393.031 119.051 391.164C116.784 389.298 113.784 388.364 110.051 388.364C106.517 388.364 103.584 389.431 101.251 391.564C98.9841 393.698 97.8508 396.498 97.8508 399.964C97.8508 402.964 98.6175 405.498 100.151 407.564C101.684 409.564 103.717 411.398 106.251 413.064C108.851 414.664 111.651 416.398 114.651 418.264C118.117 420.398 121.184 422.531 123.851 424.664C126.584 426.731 128.717 429.031 130.251 431.564C131.851 434.098 132.651 437.164 132.651 440.764C132.651 445.031 131.684 448.564 129.751 451.364C127.817 454.164 125.251 456.264 122.051 457.664C118.851 459.064 115.317 459.764 111.451 459.764C107.917 459.764 105.117 459.364 103.051 458.564C100.984 457.764 99.2175 456.931 97.7508 456.064C96.2841 455.131 95.1508 454.664 94.3508 454.664C93.6841 454.664 93.1841 455.031 92.8508 455.764C92.5841 456.498 92.3508 457.598 92.1508 459.064H89.8508C89.9841 457.664 90.0508 456.031 90.0508 454.164C90.1175 452.231 90.1508 449.731 90.1508 446.664C90.2175 443.598 90.2508 439.731 90.2508 435.064H92.5508C92.8175 439.064 93.5508 442.798 94.7508 446.264C96.0175 449.731 97.9175 452.531 100.451 454.664C103.051 456.731 106.484 457.764 110.751 457.764C112.951 457.764 115.017 457.331 116.951 456.464C118.951 455.531 120.584 454.098 121.851 452.164C123.117 450.164 123.751 447.598 123.751 444.464C123.751 441.731 123.084 439.364 121.751 437.364C120.484 435.298 118.684 433.398 116.351 431.664C114.017 429.864 111.284 428.031 108.151 426.164C105.017 424.231 102.084 422.264 99.3508 420.264C96.6175 418.264 94.4175 415.964 92.7508 413.364C91.1508 410.698 90.3508 407.498 90.3508 403.764C90.3508 399.831 91.2175 396.598 92.9508 394.064C94.7508 391.464 97.0841 389.564 99.9508 388.364C102.817 387.098 105.884 386.464 109.151 386.464ZM183.555 458.364V456.364C185.821 456.231 187.521 455.964 188.655 455.564C189.855 455.164 190.655 454.364 191.055 453.164C191.455 451.964 191.655 450.164 191.655 447.764V398.164C191.655 395.698 191.455 393.898 191.055 392.764C190.655 391.564 189.855 390.764 188.655 390.364C187.521 389.898 185.821 389.631 183.555 389.564V387.564C185.088 387.631 187.021 387.698 189.355 387.764C191.688 387.831 193.988 387.864 196.255 387.864C198.855 387.864 201.288 387.831 203.555 387.764C205.821 387.698 207.655 387.631 209.055 387.564V389.564C206.788 389.631 205.055 389.898 203.855 390.364C202.721 390.764 201.955 391.564 201.555 392.764C201.155 393.898 200.955 395.698 200.955 398.164V447.764C200.955 450.164 201.155 451.964 201.555 453.164C201.955 454.364 202.721 455.164 203.855 455.564C205.055 455.964 206.788 456.231 209.055 456.364V458.364C207.655 458.231 205.821 458.164 203.555 458.164C201.288 458.098 198.855 458.064 196.255 458.064C193.988 458.064 191.688 458.098 189.355 458.164C187.021 458.164 185.088 458.231 183.555 458.364ZM141.755 458.364V456.364C144.021 456.231 145.721 455.964 146.855 455.564C148.055 455.164 148.855 454.364 149.255 453.164C149.655 451.964 149.855 450.164 149.855 447.764V398.164C149.855 395.698 149.655 393.898 149.255 392.764C148.855 391.564 148.055 390.764 146.855 390.364C145.721 389.898 144.021 389.631 141.755 389.564V387.564C143.155 387.631 144.988 387.698 147.255 387.764C149.521 387.831 151.955 387.864 154.555 387.864C156.888 387.864 159.188 387.831 161.455 387.764C163.788 387.698 165.721 387.631 167.255 387.564V389.564C164.988 389.631 163.255 389.898 162.055 390.364C160.921 390.764 160.155 391.564 159.755 392.764C159.355 393.898 159.155 395.698 159.155 398.164V447.764C159.155 450.164 159.355 451.964 159.755 453.164C160.155 454.364 160.921 455.164 162.055 455.564C163.255 455.964 164.988 456.231 167.255 456.364V458.364C165.721 458.231 163.788 458.164 161.455 458.164C159.188 458.098 156.888 458.064 154.555 458.064C151.955 458.064 149.521 458.098 147.255 458.164C144.988 458.164 143.155 458.231 141.755 458.364ZM155.655 423.764V421.764H195.155V423.764H155.655ZM242.938 387.564V389.564C240.672 389.631 238.938 389.898 237.738 390.364C236.605 390.764 235.838 391.564 235.438 392.764C235.038 393.898 234.838 395.698 234.838 398.164V447.764C234.838 450.164 235.038 451.964 235.438 453.164C235.838 454.364 236.605 455.164 237.738 455.564C238.938 455.898 240.672 456.064 242.938 456.064H250.238C253.372 456.064 255.905 455.731 257.838 455.064C259.838 454.398 261.405 453.364 262.538 451.964C263.738 450.498 264.638 448.564 265.238 446.164C265.838 443.764 266.305 440.831 266.638 437.364H268.938C268.738 439.431 268.638 442.164 268.638 445.564C268.638 446.831 268.672 448.664 268.738 451.064C268.872 453.398 269.072 455.831 269.338 458.364C265.938 458.231 262.105 458.164 257.838 458.164C253.572 458.098 249.772 458.064 246.438 458.064C244.972 458.064 243.072 458.064 240.738 458.064C238.472 458.064 236.005 458.098 233.338 458.164C230.672 458.164 227.972 458.198 225.238 458.264C222.505 458.264 219.905 458.298 217.438 458.364V456.364C219.705 456.231 221.405 455.964 222.538 455.564C223.738 455.164 224.538 454.364 224.938 453.164C225.338 451.964 225.538 450.164 225.538 447.764V398.164C225.538 395.698 225.338 393.898 224.938 392.764C224.538 391.564 223.738 390.764 222.538 390.364C221.405 389.898 219.705 389.631 217.438 389.564V387.564C218.838 387.631 220.672 387.698 222.938 387.764C225.205 387.831 227.638 387.864 230.238 387.864C232.572 387.864 234.872 387.831 237.138 387.764C239.472 387.698 241.405 387.631 242.938 387.564ZM309.627 386.164C313.961 386.164 317.461 386.831 320.127 388.164C322.794 389.431 325.294 390.931 327.627 392.664C328.494 393.331 329.161 393.664 329.627 393.664C330.894 393.664 331.727 391.631 332.127 387.564H334.427C334.294 390.031 334.194 393.031 334.127 396.564C334.061 400.098 334.027 404.764 334.027 410.564H331.727C331.261 407.764 330.694 405.064 330.027 402.464C329.361 399.864 328.261 397.631 326.727 395.764C324.794 393.298 322.261 391.398 319.127 390.064C315.994 388.664 312.761 387.964 309.427 387.964C306.094 387.964 303.061 388.798 300.327 390.464C297.661 392.064 295.361 394.398 293.427 397.464C291.494 400.531 289.994 404.231 288.927 408.564C287.927 412.831 287.427 417.664 287.427 423.064C287.427 435.064 289.361 443.864 293.227 449.464C297.094 454.998 303.094 457.764 311.227 457.764C313.627 457.764 315.694 457.431 317.427 456.764C319.227 456.031 320.627 455.331 321.627 454.664C322.894 453.798 323.694 452.998 324.027 452.264C324.361 451.464 324.527 450.431 324.527 449.164V439.564C324.527 436.831 324.261 434.798 323.727 433.464C323.194 432.131 322.194 431.231 320.727 430.764C319.327 430.298 317.227 430.031 314.427 429.964V427.964C315.627 428.031 317.027 428.098 318.627 428.164C320.227 428.164 321.894 428.198 323.627 428.264C325.427 428.264 327.061 428.264 328.527 428.264C330.727 428.264 332.694 428.231 334.427 428.164C336.227 428.098 337.727 428.031 338.927 427.964V429.964C337.461 430.031 336.361 430.264 335.627 430.664C334.894 431.064 334.394 431.864 334.127 433.064C333.927 434.264 333.827 436.098 333.827 438.564V458.364H331.827C331.761 457.231 331.494 455.998 331.027 454.664C330.627 453.331 329.994 452.664 329.127 452.664C328.727 452.664 328.327 452.764 327.927 452.964C327.527 453.164 326.827 453.631 325.827 454.364C323.627 456.031 321.294 457.364 318.827 458.364C316.361 459.298 313.494 459.764 310.227 459.764C303.361 459.764 297.461 458.364 292.527 455.564C287.661 452.698 283.927 448.598 281.327 443.264C278.727 437.931 277.427 431.564 277.427 424.164C277.427 416.364 278.827 409.631 281.627 403.964C284.427 398.298 288.227 393.931 293.027 390.864C297.894 387.731 303.427 386.164 309.627 386.164ZM425.24 387.564V389.564C422.973 389.631 421.24 389.898 420.04 390.364C418.907 390.764 418.14 391.564 417.74 392.764C417.34 393.898 417.14 395.698 417.14 398.164V447.764C417.14 450.164 417.34 451.964 417.74 453.164C418.14 454.364 418.907 455.164 420.04 455.564C421.24 455.964 422.973 456.231 425.24 456.364V458.364C423.707 458.231 421.773 458.164 419.44 458.164C417.173 458.098 414.873 458.064 412.54 458.064C409.94 458.064 407.507 458.098 405.24 458.164C402.973 458.164 401.14 458.231 399.74 458.364V456.364C402.007 456.231 403.707 455.964 404.84 455.564C406.04 455.164 406.84 454.364 407.24 453.164C407.64 451.964 407.84 450.164 407.84 447.764V392.764L408.24 393.064L383.74 458.864H382.14L356.94 393.964V446.764C356.94 449.164 357.14 451.064 357.54 452.464C358.007 453.798 358.873 454.764 360.14 455.364C361.473 455.898 363.44 456.231 366.04 456.364V458.364C364.84 458.231 363.273 458.164 361.34 458.164C359.407 458.098 357.573 458.064 355.84 458.064C354.173 458.064 352.473 458.098 350.74 458.164C349.073 458.164 347.673 458.231 346.54 458.364V456.364C348.807 456.231 350.507 455.898 351.64 455.364C352.84 454.764 353.64 453.798 354.04 452.464C354.44 451.064 354.64 449.164 354.64 446.764V398.164C354.64 395.698 354.44 393.898 354.04 392.764C353.64 391.564 352.84 390.764 351.64 390.364C350.507 389.898 348.807 389.631 346.54 389.564V387.564C347.673 387.631 349.073 387.698 350.74 387.764C352.473 387.831 354.173 387.864 355.84 387.864C357.307 387.864 358.807 387.831 360.34 387.764C361.94 387.698 363.273 387.631 364.34 387.564L387.04 447.364L385.34 448.164L407.84 387.864C408.64 387.864 409.407 387.864 410.14 387.864C410.94 387.864 411.74 387.864 412.54 387.864C414.873 387.864 417.173 387.831 419.44 387.764C421.773 387.698 423.707 387.631 425.24 387.564Z" fill="#E1A95F"/>
</g>
<defs>
<clipPath id="clip0_180_2">
<rect width="512" height="512" fill="white"/>
</clipPath>
</defs>
</svg>
