<?xml version="1.0" standalone="no"?>
<!DOCTYPE svg PUBLIC "-//W3C//DTD SVG 1.1//EN" "http://www.w3.org/Graphics/SVG/1.1/DTD/svg11.dtd" >
<svg xmlns="http://www.w3.org/2000/svg" xmlns:xlink="http://www.w3.org/1999/xlink" version="1.1">
<metadata>
Created by FontForge 20190801 at Tue Mar 27 00:39:05 2018
 By www-data
</metadata>
<defs>
<font id="espoirItalic" horiz-adv-x="450" >
  <font-face 
    font-family="espoirItalic"
    font-weight="400"
    font-style="italic"
    font-stretch="normal"
    units-per-em="1000"
    panose-1="0 0 0 0 0 0 0 0 0 0"
    ascent="800"
    descent="-200"
    x-height="571"
    cap-height="701"
    bbox="-27 -176 973 955"
    underline-thickness="0"
    underline-position="0"
    unicode-range="U+000A-2122"
  />
<missing-glyph horiz-adv-x="1530" 
 />
    <glyph glyph-name=".notdef" horiz-adv-x="1530" 
 />
    <glyph glyph-name=".null" horiz-adv-x="0" 
 />
    <glyph glyph-name="nonmarkingreturn" horiz-adv-x="333" 
 />
    <glyph glyph-name="LF" unicode="&#xa;" horiz-adv-x="1130" 
 />
    <glyph glyph-name="controlCR" unicode="&#xd;" horiz-adv-x="1130" 
 />
    <glyph glyph-name="space" unicode=" " horiz-adv-x="340" 
 />
    <glyph glyph-name="exclam" unicode="!" horiz-adv-x="276" 
d="M246 750l-137 -585h-10l70 585h77zM117 18q-18 -16 -40.5 -17t-35.5 14q-14 15 -11 37.5t21 38.5t40.5 17t35.5 -14q14 -15 11 -37.5t-21 -38.5z" />
    <glyph glyph-name="quotedbl" unicode="&#x22;" horiz-adv-x="250" 
d="M195 702q20 0 24 -16t-2 -38q-5 -28 -18.5 -55.5t-24.5 -40.5l-12 -14h-5q25 35 35 64q-2 -1 -4 -2.5t-2.5 -2.5t-2 -1.5l-3 -1t-4.5 -0.5q-20 0 -23.5 16t2.5 38q3 19 6 28.5t11.5 17.5t22.5 8zM73 702q20 0 24 -16t-2 -38q-5 -28 -18.5 -55.5t-24.5 -40.5l-12 -14h-5
q25 35 35 64q-2 -1 -4 -2.5t-2.5 -2.5t-2 -1.5l-3 -1t-4.5 -0.5q-20 0 -23.5 16t2.5 38q3 19 6 28.5t11.5 17.5t22.5 8z" />
    <glyph glyph-name="numbersign" unicode="#" horiz-adv-x="621" 
d="M588 423h-143l-64 -148h152l-2 -14h-155l-72 -167h-14l72 167h-177l-72 -167h-14l72 167h-140l2 14h143l64 148h-152l2 14h155l72 167h14l-72 -167h177l72 167h14l-72 -167h140zM367 275l64 148h-177l-64 -148h177z" />
    <glyph glyph-name="dollar" unicode="$" horiz-adv-x="438" 
d="M395 480h-77l11 60q23 138 -51 138q-31 0 -54.5 -27.5t-32 -54.5t-13.5 -56q-5 -32 20.5 -81t53.5 -81q13 -15 32.5 -41.5t41 -80t14.5 -95.5q-10 -53 -49.5 -94t-91.5 -54l-22 -123h-77l22 123q-48 13 -73 54t-15 94l11 60h77l-11 -60q-22 -134 52 -134q77 0 99 134
q5 32 -20.5 81t-53.5 81q-13 15 -32.5 41.5t-41 80t-14.5 95.5q10 53 49.5 94t91.5 54l22 123h77l-22 -123q48 -13 73 -54t15 -94z" />
    <glyph glyph-name="percent" unicode="%" horiz-adv-x="638" 
d="M251 446q-7 -39 -43.5 -66t-83.5 -27q-46 0 -73.5 27t-20.5 66l32 181q7 39 43.5 66t83.5 27q46 0 73.5 -27t20.5 -66zM205 627q1 6 2 16t1.5 27t-5 28.5t-16.5 11.5q-31 0 -48 -83l-32 -181q-1 -6 -2 -16t-1.5 -27t5 -28.5t16.5 -11.5q31 0 48 83zM511 411
q46 0 73.5 -27t20.5 -66l-32 -181q-7 -39 -43.5 -66t-83.5 -27q-46 0 -73.5 27t-20.5 66l32 181q7 39 43.5 66t83.5 27zM527 318q1 6 2 16t1.5 27t-5 28.5t-16.5 11.5q-31 0 -48 -83l-32 -181q-1 -6 -2 -16t-1.5 -27t5 -28.5t16.5 -11.5q31 0 48 83zM477 764h10l-330 -763
h-10z" />
    <glyph glyph-name="ampersand" unicode="&#x26;" horiz-adv-x="496" 
d="M465 392h-4q-38 -75 -161 -71q47 -32 50 -102q2 -23 -3 -48q-4 -25 -14 -48q-19 -45 -55 -77q-53 -45 -118 -45q-64 0 -103 46.5t-25 127.5q26 143 89 199q-45 53 -27 154q14 81 69.5 127.5t119.5 46.5t103 -46.5t25 -127.5l-8 -45h-89l8 45q29 164 -41 164
q-69 0 -98 -164q-12 -64 -4 -94q7 -28 18.5 -40.5t34.5 -12.5h16l-2 -10h-19q-33 0 -61 -49.5t-45 -145.5q-29 -164 41 -164q65 0 96 150l1 7q1 8 5 26l3 17q17 99 -16 116l-19 4l2 10q8 0 24 -2q27 -1 49.5 4t35.5 12.5t22.5 16t12.5 13.5l4 6h83z" />
    <glyph glyph-name="quotesingle" unicode="'" horiz-adv-x="128" 
d="M73 702q20 0 24 -16t-2 -38q-5 -28 -18.5 -55.5t-24.5 -40.5l-12 -14h-5q25 35 35 64q-2 -1 -4 -2.5t-2.5 -2.5t-2 -1.5l-3 -1t-4.5 -0.5q-20 0 -23.5 16t2.5 38q3 19 6 28.5t11.5 17.5t22.5 8z" />
    <glyph glyph-name="parenleft" unicode="(" horiz-adv-x="391" 
d="M316 786h45l-2 -10h-45q-29 0 -52.5 -19t-27.5 -46l-126 -713q-4 -27 12.5 -46t45.5 -19h45l-2 -10h-45q-66 0 -104.5 45t-27.5 109l98 555q11 64 65.5 109t120.5 45z" />
    <glyph glyph-name="parenright" unicode=")" horiz-adv-x="391" 
d="M227 778q66 0 104.5 -45t27.5 -109l-98 -555q-11 -64 -65.5 -109t-120.5 -45h-45l2 10h45q29 0 52.5 19t27.5 46l126 713q4 27 -12.5 46t-45.5 19h-45l2 10h45z" />
    <glyph glyph-name="asterisk" unicode="*" horiz-adv-x="177" 
d="M146 649l-44 -9l28 -37l-22 -14l-20 39l-22 -39l-21 14l31 37l-46 9l7 25l42 -18l-4 46h26l-5 -47l43 19z" />
    <glyph glyph-name="plus" unicode="+" horiz-adv-x="489" 
d="M458 347l-2 -13h-207l-36 -207h-13l36 207h-207l2 13h207l36 207h13l-36 -207h207z" />
    <glyph glyph-name="comma" unicode="," horiz-adv-x="169" 
d="M94 105q22 0 35.5 -15.5t9.5 -38.5q-5 -28 -21 -55.5t-30 -41.5l-13 -13h-5q25 35 35 64q-14 -8 -29 -8q-23 0 -36 15.5t-9 38.5t22.5 38.5t40.5 15.5z" />
    <glyph glyph-name="hyphen" unicode="-" horiz-adv-x="443" 
d="M32 348h380l-2 -12h-380z" />
    <glyph glyph-name="period" unicode="." horiz-adv-x="169" 
d="M118 17q-18 -16 -40.5 -17t-35.5 14q-14 15 -11 37.5t21 38.5t40.5 17t35.5 -14q14 -15 11 -37.5t-21 -38.5z" />
    <glyph glyph-name="slash" unicode="/" horiz-adv-x="455" 
d="M415 806h10l-385 -889h-10z" />
    <glyph glyph-name="zero" unicode="0" 
d="M387 655h1q42 -47 30 -116l-67 -380q-11 -66 -66 -112.5t-121 -46.5t-104.5 46.5t-27.5 112.5l67 380q11 66 66 112.5t121 46.5q61 0 100 -42h1v-1zM329 539v3l-211 -411q-15 -120 48 -120q69 0 96 148zM334 571v-1q15 117 -48 117q-69 0 -96 -148l-67 -379z" />
    <glyph glyph-name="one" unicode="1" horiz-adv-x="277" 
d="M157 700l89 -1l-123 -699h-89l121 687l-120 -79l-5 8z" />
    <glyph glyph-name="two" unicode="2" horiz-adv-x="453" 
d="M291 699q64 0 103 -46.5t25 -127.5q-26 -145 -307 -435h230l-16 -89h-297q87 110 122 155q91 116 127 198t51 171q6 32 8 54t1 50.5t-13.5 44t-35.5 15.5q-69 0 -98 -164l-8 -45h-89l8 45q14 81 69.5 127.5t119.5 46.5z" />
    <glyph glyph-name="three" unicode="3" horiz-adv-x="447" 
d="M413 525l-1 2q-18 -102 -81 -154q43 -57 18 -199q-14 -81 -69.5 -127.5t-119.5 -46.5q-65 0 -102 45q-39 48 -25 128l8 45h89l-8 -45q-29 -164 41 -164q69 0 98 164q16 99 5.5 147t-43.5 48h-19l2 10h16q24 0 39.5 12.5t32.5 40.5q18 29 30 94q29 164 -40 164
q-70 0 -99 -164l-8 -45h-89l8 45q14 81 69.5 127.5t119.5 46.5t103 -46.5t25 -127.5z" />
    <glyph glyph-name="four" unicode="4" horiz-adv-x="482" 
d="M452 700l-96 -543h85l-2 -10h-85l-26 -147h-89l26 147h-235zM267 157l66 370l-283 -370h217z" />
    <glyph glyph-name="five" unicode="5" horiz-adv-x="474" 
d="M428 610l-3 2h-297l-31 -178q21 27 68.5 38.5t90 8t63.5 -14.5q75 -39 54 -158l-24 -135q-14 -81 -69.5 -127.5t-119.5 -46.5q-65 0 -102 45q-39 48 -25 128l8 45h89l-8 -45q-29 -164 41 -164q69 0 98 164l24 135q18 75 11.5 118.5t-51.5 43.5q-64 0 -95.5 -13t-52.5 -42
h-10l50 285h307z" />
    <glyph glyph-name="six" unicode="6" horiz-adv-x="448" 
d="M285 699l-1 1q64 0 103.5 -44.5t26.5 -122.5l-8 -45h-89l8 45q5 30 7 50t1 48t-13.5 43t-36.5 15q-70 0 -97 -156l-26 -147q53 20 102 14q58 -8 85 -49t16 -103l-13 -75q-14 -81 -69.5 -127.5t-119.5 -46.5q-65 0 -102 45q-39 48 -25 128l63 360q13 78 68.5 122.5
t119.5 44.5zM248 391l1 -1q-27 4 -55.5 -7.5t-39.5 -29.5l-32 -180q-6 -32 -8 -54t-1 -50.5t13.5 -44t35.5 -15.5t41 15.5t29 44t17 51t11 53.5l27 154q10 57 -39 64z" />
    <glyph glyph-name="seven" unicode="7" horiz-adv-x="503" 
d="M86 699h385l-69 -71q-122 -126 -178 -276q-37 -99 -66 -206l-35 -146h-93q26 106 36 141q37 129 115.5 251t190.5 218h-302z" />
    <glyph glyph-name="eight" unicode="8" horiz-adv-x="447" 
d="M285 699h1q64 0 103 -46.5t25 -127.5l-5 -31q-14 -82 -75 -131q42 -53 27 -138l-9 -49q-14 -81 -69.5 -127.5t-119.5 -46.5t-103 46.5t-25 127.5l9 49q15 86 76 138q-43 48 -29 131l5 31q14 81 69.5 127.5t119.5 46.5zM272 224q4 23 5.5 33.5t3 30t-1 29.5t-7.5 21.5
t-16.5 16.5t-28.5 5q-20 0 -35 -8.5t-24 -20t-16.5 -32.5t-10.5 -35.5t-7 -39.5l-9 -49q-4 -22 -5.5 -34.5t-4 -35.5t-0.5 -36.5t6.5 -28.5t15.5 -22t28 -7q24 0 42 15t29 45t16 50.5t11 53.5zM325 525q29 164 -40 164q-23 0 -41 -15.5t-29 -44t-17 -51t-11 -53.5l-5 -31
l-6 -37.5t-2 -32.5t5 -29.5t17.5 -17t32.5 -7.5q25 0 41.5 9.5t26 30.5t14 37t9.5 47z" />
    <glyph glyph-name="nine" unicode="9" horiz-adv-x="448" 
d="M388 654l1 -1q39 -48 25 -128l-63 -360q-13 -78 -68.5 -122.5t-119.5 -44.5t-103.5 44.5t-26.5 122.5l8 45h89l-8 -45q-5 -30 -7 -50t-1 -48t13.5 -43t36.5 -15q70 0 97 156l26 147q-53 -20 -102 -14q-58 8 -85 49t-16 103l13 75q14 81 69.5 127.5t119.5 46.5
q65 0 102 -45zM326 524l-1 1q6 32 8 54t1 50.5t-13.5 44t-35.5 15.5t-41 -15.5t-29 -44t-17 -51t-11 -53.5l-27 -154q-10 -57 39 -64q27 -4 55.5 7.5t39.5 29.5z" />
    <glyph glyph-name="colon" unicode=":" horiz-adv-x="229" 
d="M177 478q-18 -16 -40.5 -17t-35.5 14q-14 15 -11 37.5t21 38.5t40.5 17t35.5 -14q14 -15 11 -37.5t-21 -38.5zM118 141q-18 -16 -40.5 -17t-35.5 14q-14 15 -11 37.5t21 38.5t40.5 17t35.5 -14q14 -15 11 -37.5t-21 -38.5z" />
    <glyph glyph-name="semicolon" unicode=";" horiz-adv-x="229" 
d="M178 478q-18 -16 -40.5 -17t-35.5 14q-14 15 -11 37.5t21 38.5t40.5 17t35.5 -14q14 -15 11 -37.5t-21 -38.5zM94 228q22 0 35.5 -16t9.5 -38q-5 -28 -21 -55.5t-30 -40.5l-13 -14h-5q25 35 35 64q-14 -8 -29 -8q-23 0 -36 16t-9 38q4 23 22.5 38.5t40.5 15.5z" />
    <glyph glyph-name="less" unicode="&#x3c;" 
d="M30 318l7 38l383 206l-5 -28l-366 -197l296 -197l-5 -28z" />
    <glyph glyph-name="equal" unicode="=" horiz-adv-x="518" 
d="M30 253l2 13h426l-2 -13h-426zM62 434h426l-2 -13h-426z" />
    <glyph glyph-name="greater" unicode="&#x3e;" 
d="M419 368l-7 -38l-383 -206l5 28l366 197l-296 197l5 28z" />
    <glyph glyph-name="question" unicode="?" horiz-adv-x="400" 
d="M233 741h-1q66 0 107 -48.5t26 -132.5q-23 -127 -115 -183q-31 -19 -51.5 -40.5t-31.5 -46.5t-15.5 -41.5t-9.5 -45.5l-7 -39h-10l7 39q17 101 34 139q19 42 51 73q52 49 69 145q4 25 6 38.5t4.5 37t-1 37.5t-9.5 29t-20.5 22t-35.5 7q-29 0 -50.5 -15.5t-34.5 -44.5
t-19.5 -52.5t-12.5 -58.5l-7 -39h-77l7 39q15 84 73 132.5t124 48.5zM144 17q-18 -16 -40.5 -17t-35.5 14q-14 15 -11 37.5t21 38.5t40.5 17t35.5 -14q14 -15 11 -37.5t-21 -38.5z" />
    <glyph glyph-name="at" unicode="@" horiz-adv-x="717" 
d="M439 805l1 -3q115 0 189 -64.5t54 -176.5l-61 -345q-11 -62 -53.5 -98t-91.5 -36q-62 0 -90 52q-49 -37 -105 -37q-54 0 -82 36t-18 92l39 220q12 66 53 101t90 35q42 0 74 -23l7 42h77l-35 -196l-27 -152l-18 -103q-5 -28 6 -43t30 -15q18 0 31 12q17 16 22 46l73 413
q40 231 -168 231q-113 0 -172.5 -66t-77.5 -165l-89 -507q-13 -74 52 -115q30 -19 67 -27q55 -13 112 15t88 83l27 -67l-37 -19q-55 -28 -130 -28q-96 0 -164 44q-99 65 -79 183l78 440q20 112 116.5 176.5t211.5 64.5zM285 109v1q27 0 54.5 20.5t33.5 56.5l50 284
q8 47 -14 76q-19 24 -46 24q-41 0 -52 -59l-62 -352q-9 -51 36 -51z" />
    <glyph glyph-name="A" unicode="A" horiz-adv-x="460" 
d="M391 655l37 -655h-92l-14 242h-183l-99 -242h-10l269 655l19 46h70zM143 252h178l-12 207l-10 173z" />
    <glyph glyph-name="B" unicode="B" horiz-adv-x="473" 
d="M297 699l-2 2q76 0 116.5 -43t25.5 -129l-7 -38q-14 -85 -96 -120q79 -40 63 -135l-11 -63q-16 -88 -70.5 -130t-131.5 -42h-155l8 45l54 304l7 37l47 267l8 45h144zM306 237v1q3 16 4 25.5t2.5 27.5t-2 29t-10 23t-20 18t-33.5 6h-65l-62 -354h65q20 0 36 8t27.5 24
t19 31t13.5 37t8.5 33t5.5 28zM347 530v1q29 161 -54 161h-55l-6 -34l-49 -279h55q23 0 41 8t28 18t17.5 28.5t10 29t5.5 29.5z" />
    <glyph glyph-name="C" unicode="C" 
d="M286 699h-1q66 0 104.5 -46.5t27.5 -112.5l-4 -21h-89l4 21q27 148 -43 148q-69 0 -96 -148l-67 -380q-27 -148 44 -148q69 0 96 148l4 21h89l-4 -21q-11 -66 -66 -112.5t-121 -46.5t-104.5 46.5t-27.5 112.5l67 380q11 66 66 112.5t121 46.5z" />
    <glyph glyph-name="D" unicode="D" horiz-adv-x="482" 
d="M308 699h2q71 0 112.5 -50.5t28.5 -121.5l-63 -355q-13 -71 -72.5 -121.5t-130.5 -50.5h-155l8 45l107 609l8 45h155zM362 527l1 1q29 161 -54 161h-65l-120 -678h65q20 0 36 8t27.5 24t19 31t13.5 37t8.5 33t5.5 28z" />
    <glyph glyph-name="E" unicode="E" horiz-adv-x="413" 
d="M381 689h2h-141l-57 -321h93l-2 -10h-93l-61 -347h140l-2 -10h-230l123 698h230z" />
    <glyph glyph-name="F" unicode="F" horiz-adv-x="413" 
d="M381 689h1h-141l-57 -321h93l-2 -10h-93l-63 -357h-89l123 698h230z" />
    <glyph glyph-name="G" unicode="G" 
d="M286 699l-1 1q66 0 104.5 -46.5t27.5 -112.5l-4 -21h-89l4 21q27 148 -44 148q-69 0 -96 -148l-67 -380q-27 -148 44 -148q69 0 96 148l31 178h-39l2 10h129l-33 -189q-11 -66 -66 -112.5t-121 -46.5t-104.5 46.5t-27.5 112.5l67 380q11 66 66 112.5t121 46.5z" />
    <glyph glyph-name="H" unicode="H" horiz-adv-x="510" 
d="M391 701h89l-124 -701h-89l61 345h-148l-61 -345h-89l124 701h89l-61 -345h148z" />
    <glyph glyph-name="I" unicode="I" horiz-adv-x="273" 
d="M154 701h89l-124 -701h-89z" />
    <glyph glyph-name="J" unicode="J" horiz-adv-x="476" 
d="M356 701h91l-95 -540q-11 -66 -66 -112.5t-121 -46.5t-104.5 46.5t-27.5 112.5l4 21h89l-4 -21q-27 -148 43 -148q69 0 96 148z" />
    <glyph glyph-name="K" unicode="K" horiz-adv-x="483" 
d="M453 701l-219 -289l127 -412h-101l-91 282l-50 -282h-89l124 701h89l-60 -339l258 339h12z" />
    <glyph glyph-name="L" unicode="L" horiz-adv-x="319" 
d="M121 11h2h167l-2 -10h-257l123 699h89z" />
    <glyph glyph-name="M" unicode="M" horiz-adv-x="610" 
d="M490 701h90l-2 -11l-8 -47l-113 -643h-89l119 673l-234 -398l-93 398l-119 -673h-10l113 643l8 47l2 11h95l69 -295z" />
    <glyph glyph-name="N" unicode="N" horiz-adv-x="516" 
d="M476 701h10l-124 -701h-10l-193 673l-119 -673h-10l124 701h95l141 -489z" />
    <glyph glyph-name="O" unicode="O" 
d="M286 698q66 0 104.5 -46.5t27.5 -112.5l-67 -380q-11 -66 -66 -112.5t-121 -46.5t-104.5 46.5t-27.5 112.5l67 380q11 66 66 112.5t121 46.5zM328 539q27 148 -44 148q-69 0 -96 -148l-67 -380q-27 -148 44 -148q69 0 96 148z" />
    <glyph glyph-name="P" unicode="P" horiz-adv-x="472" 
d="M297 699h2q71 0 112.5 -50.5t28.5 -121.5l-18 -102q-13 -71 -72.5 -121.5t-130.5 -50.5h-55l-45 -254h-89l115 655l8 45h144zM351 527l1 1q29 161 -54 161h-55l-20 -114l-55 -311h55q20 0 36 8t27.5 24t19 31t13.5 37t8.5 33t5.5 28z" />
    <glyph glyph-name="Q" unicode="Q" 
d="M286 705h1q66 0 104.5 -46.5t27.5 -112.5l-67 -380q-14 -77 -82 -124l39 -34l-7 -8l-42 36q-47 -29 -96 -29q-66 0 -104.5 46.5t-27.5 112.5l67 380q11 66 66 112.5t121 46.5zM329 546l1 -1q27 148 -44 148q-69 0 -96 -148l-67 -380q-27 -148 44 -148q38 0 63 44l-29 25
l7 8l27 -23q14 30 27 95z" />
    <glyph glyph-name="R" unicode="R" horiz-adv-x="472" 
d="M297 699h1q71 0 112.5 -50.5t28.5 -121.5l-18 -102q-10 -53 -47.5 -96.5t-89.5 -62.5l83 -267h-99l-79 254h-25l-45 -254h-89l115 655l8 45h144zM350 527l1 1q29 161 -54 161h-55l-20 -114l-55 -311h55q20 0 36 8t27.5 24t19 31t13.5 37t8.5 33t5.5 28z" />
    <glyph glyph-name="S" unicode="S" 
d="M286 698q66 0 104.5 -46.5t27.5 -112.5l-4 -21h-89l4 21q27 148 -44 148q-69 0 -96 -148q-5 -29 19 -76t54 -83q18 -21 36.5 -47.5t39 -80t12.5 -95.5q-11 -66 -66 -112.5t-121 -46.5t-104.5 46.5t-27.5 112.5l4 21h89l-4 -21q-27 -148 44 -148q69 0 96 148q5 29 -19 76
t-54 83q-18 21 -36.5 47.5t-39 80t-12.5 95.5q11 66 66 112.5t121 46.5z" />
    <glyph glyph-name="T" unicode="T" horiz-adv-x="379" 
d="M47 699h301l-2 -10h-106l-122 -689h-89l122 689h-106z" />
    <glyph glyph-name="U" unicode="U" horiz-adv-x="476" 
d="M356 699h90l-95 -540q-11 -66 -66 -112.5t-121 -46.5t-104.5 46.5t-27.5 112.5l95 540h89l-95 -540q-27 -148 44 -148q69 0 96 148z" />
    <glyph glyph-name="V" unicode="V" horiz-adv-x="460" 
d="M419 701h11l-297 -701h-70l-32 701h91l29 -633z" />
    <glyph glyph-name="W" unicode="W" horiz-adv-x="684" 
d="M644 701l9 -1l-277 -655l-19 -45h-70l-15 329l-120 -284l-19 -45h-70l-32 701h91l29 -633l120 284l-8 184h91l1 -11l21 -457z" />
    <glyph glyph-name="X" unicode="X" horiz-adv-x="609" 
d="M579 701l-236 -314l112 -387h-98l-88 303l-228 -303h-12l236 314l-112 387h98l88 -303l228 303h12z" />
    <glyph glyph-name="Y" unicode="Y" horiz-adv-x="479" 
d="M438 701h10l-237 -413l-51 -288h-89l51 288l-92 413h96l87 -391z" />
    <glyph glyph-name="Y" unicode="&#xdd;" horiz-adv-x="479" 
d="M438 701h10l-237 -413l-51 -288h-89l51 288l-92 413h96l87 -391z" />
    <glyph glyph-name="Z" unicode="Z" horiz-adv-x="553" 
d="M522 698l-390 -688h269l-2 -10h-369l390 688h-269l2 10h369z" />
    <glyph glyph-name="bracketleft" unicode="[" horiz-adv-x="416" 
d="M182 785h204l-2 -10h-114l-149 -844h114l-2 -10h-203z" />
    <glyph glyph-name="backslash" unicode="\" horiz-adv-x="142" 
d="M40 806l71 -889h-10l-71 889h10z" />
    <glyph glyph-name="bracketright" unicode="]" horiz-adv-x="416" 
d="M182 785h202l-152 -864h-203l2 10h114l149 844h-114z" />
    <glyph glyph-name="asciicircum" unicode="^" horiz-adv-x="257" 
d="M147 703h16l63 -152h-12l-60 145l-112 -145h-12z" />
    <glyph glyph-name="underscore" unicode="_" horiz-adv-x="715" 
d="M32 10h652l-2 -10h-652z" />
    <glyph glyph-name="grave" unicode="`" horiz-adv-x="191" 
d="M161 545l-15 -11l-116 115l69 49z" />
    <glyph glyph-name="a" unicode="a" horiz-adv-x="413" 
d="M267 571l-1 1q58 0 92 -48.5t19 -132.5l-69 -390h-89l5 26q-45 -26 -85 -26q-17 0 -32 4q-38 10 -59 39.5t-19 69.5q5 95 146 165q61 30 101 42l12 69q30 171 -24 171t-84 -171h-89q15 84 66.5 132.5t109.5 48.5zM227 42l49 269q-28 -10 -61 -30q-44 -26 -64 -60.5
t-31 -94.5q-17 -93 14 -108q21 -9 47 -2t46 26z" />
    <glyph glyph-name="b" unicode="b" horiz-adv-x="436" 
d="M381 538l1 1q33 -38 21 -104l-53 -298q-12 -67 -58 -104q-40 -33 -96 -33q-40 0 -74 17l-3 -17h-89l132 746h89l-34 -192q40 17 80 17q55 0 84 -33zM329 515l-1 -1q5 27 -5 38q-9 9 -28 9q-28 0 -55 -15.5t-29 -31.5l-81 -457q-2 -16 19.5 -31.5t49.5 -15.5q20 0 31 10
q14 11 18 38z" />
    <glyph glyph-name="c" unicode="c" horiz-adv-x="412" 
d="M253 571l2 -2q59 0 98 -39t27 -105l-7 -37h-89l20 116q5 29 -12 42t-40 13q-25 0 -42 -14q-18 -14 -23 -41l-78 -441q-5 -27 9 -41q12 -14 38 -14q22 0 44.5 13t27.5 42l20 116h89l-7 -37q-12 -66 -65 -105t-112 -39q-58 0 -92 36q-39 41 -27 109l50 283q12 67 65 109
q47 36 104 36z" />
    <glyph glyph-name="d" unicode="d" horiz-adv-x="467" 
d="M347 746l-1 -1h89l-132 -746h-89l3 17q-40 -17 -80 -17q-55 0 -84 33q-33 38 -21 104l53 298q12 67 58 104q41 33 96 33q40 0 74 -17zM305 513l1 2q2 16 -19.5 31.5t-49.5 15.5q-20 0 -31 -10q-14 -11 -18 -38l-81 -457q-5 -27 5 -38q9 -10 28 -10q28 0 55 15.5t29 31.5z
" />
    <glyph glyph-name="e" unicode="e" horiz-adv-x="412" 
d="M253 571l2 -2q59 0 98 -39t27 -105l-28 -156h-207l-36 -206q-5 -27 9 -41q12 -14 38 -14q22 0 44.5 13t27.5 42l20 116h89l-7 -37q-12 -66 -65 -105t-112 -39q-58 0 -92 36q-39 41 -27 109l50 283q12 67 65 109q47 36 104 36zM305 504h-1q5 29 -12 42t-40 13
q-25 0 -42 -14q-18 -14 -23 -41l-40 -225h118z" />
    <glyph glyph-name="f" unicode="f" horiz-adv-x="384" 
d="M281 735q-14 0 -25 -9.5t-13 -22.5l-37 -211h94l-2 -10h-94l-85 -482h-89l85 482h-49l2 10h49l23 132q9 50 51 85.5t92 35.5h71l-2 -10h-71z" />
    <glyph glyph-name="g" unicode="g" horiz-adv-x="465" 
d="M345 571l88 -2l-99 -559q-14 -84 -70 -135q-52 -47 -115 -47q-56 0 -92.5 38.5t-25.5 101.5h89l-14 -79q-4 -25 9 -38t34 -13q24 0 45 19q28 25 37 75l28 158q-40 -17 -80 -17q-55 0 -84 33q-33 38 -21 104l40 224q12 67 58 104q41 33 96 33q40 0 74 -17zM334 512l1 2
q2 16 -19.5 31.5t-49.5 15.5q-20 0 -31 -10q-14 -11 -18 -38l-67 -382q-5 -27 5 -38q9 -10 28 -10q28 0 55 15.5t29 31.5z" />
    <glyph glyph-name="h" unicode="h" horiz-adv-x="436" 
d="M381 538q33 -38 21 -104l-77 -435h-89l91 514q5 27 -5 38q-9 10 -28 10q-28 0 -55 -15.5t-29 -31.5l-91 -514h-89l132 746h89l-34 -192q40 17 80 17q55 0 84 -33z" />
    <glyph glyph-name="i" unicode="i" horiz-adv-x="279" 
d="M230 678q-16 -15 -36 -16t-32 13t-9.5 33.5t18.5 34.5t36 16t32 -13t9.5 -33.5t-18.5 -34.5zM30 0l101 571h89l-101 -571h-89z" />
    <glyph glyph-name="j" unicode="j" horiz-adv-x="463" 
d="M444 678q-16 -15 -36 -16t-32 13t-9.5 33.5t18.5 34.5t36 16t32 -13t9.5 -33.5t-18.5 -34.5zM233 -68l113 637h89l-99 -559q-14 -84 -70 -135q-52 -47 -115 -47q-56 0 -92.5 38.5t-25.5 101.5h89l-14 -79q-4 -25 9 -38t34 -13q24 0 45 19q28 25 37 75z" />
    <glyph glyph-name="k" unicode="k" horiz-adv-x="492" 
d="M461 571l-222 -202l115 -369h-99l-87 281l-50 -281h-89l132 746h89l-75 -424l272 249h14z" />
    <glyph glyph-name="l" unicode="l" horiz-adv-x="281" 
d="M162 746h89l-132 -746h-89z" />
    <glyph glyph-name="m" unicode="m" horiz-adv-x="643" 
d="M588 538v1q33 -38 21 -104l-77 -435h-89l91 514q5 27 -5 38q-9 9 -28 9q-28 0 -55 -15.5t-29 -31.5l-91 -514h-89l91 514q5 27 -5 38q-9 9 -28 9q-28 0 -55 -15.5t-29 -31.5l-91 -514h-89l101 571h89l-3 -17q40 17 80 17q56 0 84 -33q1 -1 3 -5q57 38 119 38q56 0 84 -33
z" />
    <glyph glyph-name="n" unicode="n" horiz-adv-x="436" 
d="M381 538v1q33 -38 21 -104l-77 -435h-89l91 514q5 27 -5 38q-9 9 -28 9q-28 0 -55 -15.5t-29 -31.5l-91 -514h-89l101 571h89l-3 -17q40 17 80 17q55 0 84 -33z" />
    <glyph glyph-name="o" unicode="o" horiz-adv-x="412" 
d="M253 571l2 -2q59 0 98 -39t27 -105l-50 -283q-12 -66 -65 -105t-112 -39q-58 0 -92 36q-39 41 -27 109l50 283q12 67 65 109q47 36 104 36zM305 504h-2q5 29 -12 42t-40 13q-25 0 -42 -14q-18 -14 -23 -41l-78 -441q-5 -27 9 -41q12 -14 38 -14q22 0 44.5 13t27.5 42z
" />
    <glyph glyph-name="p" unicode="p" horiz-adv-x="467" 
d="M412 538l1 1q33 -38 21 -104l-53 -298q-12 -67 -58 -104q-41 -33 -96 -33q-40 0 -74 17l-34 -192h-89l132 746h89l-3 -17q40 17 80 17q56 0 84 -33zM359 515l-1 -1q5 27 -5 38q-9 9 -28 9q-28 0 -55 -15.5t-29 -31.5l-81 -457q-2 -16 19.5 -31.5t49.5 -15.5q20 0 31 10
q14 11 18 38z" />
    <glyph glyph-name="q" unicode="q" horiz-adv-x="436" 
d="M316 571l-1 -1h89l-132 -746h-89l34 192q-40 -17 -80 -17q-55 0 -84 33q-33 38 -21 104l53 298q12 67 58 104q41 33 96 33q40 0 74 -17zM305 513l1 1q2 16 -19.5 31.5t-49.5 15.5q-20 0 -31 -10q-14 -11 -18 -38l-81 -457q-5 -27 5 -38q9 -9 28 -9q28 0 55 15.5t29 31.5z
" />
    <glyph glyph-name="r" unicode="r" horiz-adv-x="436" 
d="M381 538v2q33 -38 21 -104h-89l14 79q4 26 -5 37q-9 9 -28 9q-28 0 -55 -15.5t-29 -31.5l-91 -514h-89l101 571h89l-3 -17q40 17 80 17q55 0 84 -33z" />
    <glyph glyph-name="s" unicode="s" horiz-adv-x="411" 
d="M253 571q59 0 98 -39t27 -105l-7 -37h-89l20 116q5 29 -12 42t-40 13q-25 0 -42 -14q-19 -14 -23 -40l-14 -80q-6 -31 9 -52t56 -53q24 -19 37.5 -31.5t31 -35t23 -50.5t-0.5 -61q-12 -67 -65 -109q-47 -36 -104 -36q-60 0 -98.5 39t-26.5 105l7 37h89l-20 -116
q-5 -29 12 -42t40 -13q25 0 42 14q18 14 23 41l14 79q6 31 -9 52t-56 53q-24 19 -37.5 31.5t-31 35t-23 50.5t0.5 61q12 67 65 109q47 36 104 36z" />
    <glyph glyph-name="s" unicode="&#xdf;" horiz-adv-x="411" 
d="M253 571q59 0 98 -39t27 -105l-7 -37h-89l20 116q5 29 -12 42t-40 13q-25 0 -42 -14q-19 -14 -23 -40l-14 -80q-6 -31 9 -52t56 -53q24 -19 37.5 -31.5t31 -35t23 -50.5t-0.5 -61q-12 -67 -65 -109q-47 -36 -104 -36q-60 0 -98.5 39t-26.5 105l7 37h89l-20 -116
q-5 -29 12 -42t40 -13q25 0 42 14q18 14 23 41l14 79q6 31 -9 52t-56 53q-24 19 -37.5 31.5t-31 35t-23 50.5t0.5 61q12 67 65 109q47 36 104 36z" />
    <glyph glyph-name="t" unicode="t" horiz-adv-x="325" 
d="M199 560l-91 -518q-2 -13 5.5 -22.5t21.5 -9.5h71l-2 -10h-71q-50 0 -79.5 35.5t-20.5 85.5l77 439h-49l2 10h49l24 136h89l-24 -136h94l-2 -10h-94z" />
    <glyph glyph-name="u" unicode="u" horiz-adv-x="468" 
d="M316 571l89 -1l-101 -571h-89l3 17q-40 -17 -80 -17q-56 0 -84 33q-33 38 -21 104l77 435h89l-91 -514q-5 -27 5 -38q9 -9 28 -9q28 0 55 15.5t29 31.5z" />
    <glyph glyph-name="v" unicode="v" horiz-adv-x="395" 
d="M354 571h11l-223 -571h-89l-22 571h91l19 -550z" />
    <glyph glyph-name="w" unicode="w" horiz-adv-x="596" 
d="M555 571h11l-223 -571h-89l-10 259l-101 -259h-89l-22 571h91l19 -550l101 261l-7 175h91l15 -436z" />
    <glyph glyph-name="x" unicode="x" horiz-adv-x="358" 
d="M327 571l-141 -235l83 -336h-97l-55 222l-133 -222h-11l141 235l-83 336h97l55 -222l133 222h11z" />
    <glyph glyph-name="y" unicode="y" horiz-adv-x="465" 
d="M345 571l89 -1l-99 -559q-14 -84 -70 -135q-52 -47 -115 -47q-56 0 -92.5 38.5t-25.5 101.5h89l-14 -79q-4 -25 9 -38t34 -13q24 0 45 19q28 25 37 75l28 158q-40 -17 -80 -17q-56 0 -84 33q-33 38 -21 104l64 361h89l-78 -440q-5 -27 5 -38q9 -10 28 -10q28 0 55 15.5
t29 31.5z" />
    <glyph glyph-name="y" unicode="&#xff;" horiz-adv-x="465" 
d="M345 571l89 -1l-99 -559q-14 -84 -70 -135q-52 -47 -115 -47q-56 0 -92.5 38.5t-25.5 101.5h89l-14 -79q-4 -25 9 -38t34 -13q24 0 45 19q28 25 37 75l28 158q-40 -17 -80 -17q-56 0 -84 33q-33 38 -21 104l64 361h89l-78 -440q-5 -27 5 -38q9 -10 28 -10q28 0 55 15.5
t29 31.5z" />
    <glyph glyph-name="y" unicode="&#xfd;" horiz-adv-x="465" 
d="M345 571l89 -1l-99 -559q-14 -84 -70 -135q-52 -47 -115 -47q-56 0 -92.5 38.5t-25.5 101.5h89l-14 -79q-4 -25 9 -38t34 -13q24 0 45 19q28 25 37 75l28 158q-40 -17 -80 -17q-56 0 -84 33q-33 38 -21 104l64 361h89l-78 -440q-5 -27 5 -38q9 -10 28 -10q28 0 55 15.5
t29 31.5z" />
    <glyph glyph-name="z" unicode="z" horiz-adv-x="437" 
d="M454 571l-325 -561h226l-2 -10h-324l325 561h-226l2 10h324z" />
    <glyph glyph-name="braceleft" unicode="{" horiz-adv-x="399" 
d="M241 710l-49 -277q-8 -50 -55 -76l-3 -2q41 -26 31 -78l-50 -281q-4 -27 12.5 -46t45.5 -19h45l-2 -10h-45q-66 0 -104.5 45t-27.5 109l31 178q5 24 -13 35q-34 21 -26 64v2q8 44 48 66l2 1q22 12 25 34l31 176q11 64 65.5 109t120.5 45h45l-2 -10h-45q-29 0 -52.5 -19
t-27.5 -46z" />
    <glyph glyph-name="bar" unicode="|" horiz-adv-x="227" 
d="M187 806h10l-157 -889h-10z" />
    <glyph glyph-name="braceright" unicode="}" horiz-adv-x="400" 
d="M234 432l47 277q4 27 -12.5 46t-45.5 19h-45l2 10h45q66 0 104.5 -45t27.5 -109l-31 -176q-3 -23 14 -34l2 -1q33 -23 25 -66v-2q-8 -43 -49 -64q-22 -11 -27 -35l-31 -178q-11 -64 -65.5 -109t-120.5 -45h-45l2 10h45q29 0 52.5 19t27.5 46l50 281q10 52 60 78l-2 2
q-38 25 -30 76z" />
    <glyph glyph-name="asciitilde" unicode="~" horiz-adv-x="414" 
d="M323 408l2 1h60l-5 -30q-8 -43 -34.5 -75t-63.5 -42q-12 -3 -24 -3q-54 0 -76 55q-3 8 -8 34.5t-13 41.5t-24 13q-21 -2 -40 -98l-5 -30h-60l5 30q7 41 29 68.5t54 35.5q36 9 69.5 -9.5t48.5 -55.5q2 -6 4.5 -20.5t4.5 -26.5t7 -21.5t12 -8.5q33 5 52 111z" />
    <glyph glyph-name="nonbreakingspace" unicode="&#xa0;" horiz-adv-x="1347" 
 />
    <glyph glyph-name="exclamdown" unicode="&#xa1;" horiz-adv-x="276" 
d="M30 0l137 585h10l-70 -585h-77zM225 660q-18 -16 -40.5 -17t-35.5 14q-14 15 -11 37.5t21 38.5t40.5 17t35.5 -14q14 -15 11 -37.5t-21 -38.5z" />
    <glyph glyph-name="sterling" unicode="&#xa3;" horiz-adv-x="478" 
d="M434 477l-92 -1l25 142q5 29 -11 50.5t-44 22.5q-30 2 -55 -20q-16 -14 -23 -33.5t-19 -87.5q-11 -61 28 -178v-1q6 -19 9 -42h154l-2 -10h-151q7 -75 -42.5 -155.5t-143.5 -153.5h283l-2 -10h-320l20 116l17 13q39 32 69.5 90.5t26.5 99.5h-77l2 10h71v3
q-44 140 -31 211q12 68 70 115t124 44q65 -2 101 -49t24 -113z" />
    <glyph glyph-name="currency" unicode="&#xa4;" horiz-adv-x="470" 
d="M377 334q-9 -54 -53 -95l58 -71l-12 -10l-58 71q-47 -37 -102 -37t-89 37l-83 -71l-8 10l83 71q-29 40 -20 95q9 54 53 95l-58 71l12 10l58 -71q47 37 102 37t89 -37l83 71l8 -10l-83 -71q29 -40 20 -95zM294 251q8 6 12 10q33 32 41 74q7 42 -15 74q-3 4 -9 10
q-27 27 -69 27q-41 0 -78 -27q-8 -6 -12 -10q-33 -32 -41 -74q-7 -42 15 -74q3 -4 9 -10q27 -27 69 -27q41 0 78 27z" />
    <glyph glyph-name="yen" unicode="&#xa5;" horiz-adv-x="564" 
d="M534 701l-235 -407h150l-2 -12h-152l-21 -121h152l-2 -12h-152l-26 -148h-89l26 148h-152l2 12h152l21 121h-152l2 12h150l-91 407h96l87 -391l225 391h11z" />
    <glyph glyph-name="brokenbar" unicode="&#xa6;" horiz-adv-x="227" 
d="M187 810h10l-66 -373h-10zM30 -79l66 373h10l-66 -373h-10z" />
    <glyph glyph-name="section" unicode="&#xa7;" horiz-adv-x="466" 
d="M422 561l-77 -2l11 60q24 143 -51 143q-76 0 -100 -143q-5 -32 20.5 -81t53.5 -81q13 -15 32.5 -41.5t41 -80t14.5 -95.5q-7 -36 -36 -77q14 -44 7 -79q-11 -63 -64 -108t-116 -45t-99.5 45t-25.5 108l11 60h77l-11 -60q-3 -21 -4 -41t1.5 -45.5t16 -41t37.5 -15.5
t43.5 15.5t31 41t17.5 46t9 40.5q5 31 -19 79t-55 84q-13 15 -32.5 41.5t-41 80t-14.5 95.5q8 43 35 78q-14 44 -7 79q11 63 64 108t116 45t99.5 -45t25.5 -108zM215 401v-1q-25 31 -39 53q-1 -31 23 -76t52 -77q25 -31 39 -53q1 32 -24 77.5t-51 76.5z" />
    <glyph glyph-name="dieresis" unicode="&#xa8;" horiz-adv-x="384" 
d="M332 614q-18 -16 -40.5 -17t-35.5 14q-14 15 -11 37.5t21 38.5t40.5 17t35.5 -14q14 -15 11 -37.5t-21 -38.5zM117 614q-18 -16 -40.5 -17t-35.5 14q-14 15 -11 37.5t21 38.5t40.5 17t35.5 -14q14 -15 11 -37.5t-21 -38.5z" />
    <glyph glyph-name="copyright" unicode="&#xa9;" horiz-adv-x="303" 
d="M165 418q15 0 23.5 -10.5t6.5 -25.5l-1 -5h-20l1 5q8 34 -10 34q-14 0 -22 -34l-15 -86q-8 -34 10 -34q14 0 22 34l1 5h20l-1 -5q-2 -15 -14.5 -25.5t-27.5 -10.5t-23.5 10.5t-6.5 25.5l15 86q2 15 14.5 25.5t27.5 10.5zM254 419q24 -34 17 -80t-45 -80l-10 -8
q-41 -31 -86 -31q-46 0 -75 31l-7 8q-24 34 -17 80t45 80l10 8q41 31 86 31q46 0 75 -31zM245 339q6 37 -13 62q-4 6 -7 9q-23 23 -58 23t-66 -23l-9 -9q-28 -26 -34 -62q-6 -37 13 -62q4 -6 7 -9q23 -23 58 -23t66 23l9 9q28 26 34 62z" />
    <glyph glyph-name="guillemotleft" unicode="&#xab;" horiz-adv-x="676" 
d="M646 565l-5 -28l-366 -197l296 -197l-5 -28l-310 206l7 38zM414 537l-366 -197l296 -197l-5 -28l-310 206l7 38l383 206z" />
    <glyph glyph-name="registered" unicode="&#xae;" horiz-adv-x="303" 
d="M167 397h1q16 0 25 -11t6 -27l-4 -23q-5 -26 -31 -36l19 -60h-22l-18 57h-6l-10 -57h-20l26 147l2 10h32zM180 358l-1 1q7 36 -12 36h-12l-5 -26l-12 -70h12q19 0 26 36zM254 399q24 -34 17 -80t-45 -80l-10 -8q-41 -31 -86 -31q-46 0 -75 31l-7 8q-24 34 -17 80t45 80
l10 8q41 31 86 31q46 0 75 -31zM245 319q6 37 -13 62q-4 6 -7 9q-23 23 -58 23t-66 -23l-9 -9q-28 -26 -34 -62q-6 -37 13 -62q4 -6 7 -9q23 -23 58 -23t66 23l9 9q28 26 34 62z" />
    <glyph glyph-name="degree" unicode="&#xb0;" horiz-adv-x="239" 
d="M135 703q36 0 57 -25.5t14 -61.5t-37 -61.5t-66 -25.5t-57 25.5t-14 61.5t37 61.5t66 25.5zM111 567q20 0 36.5 14.5t20.5 34.5t-8 34.5t-32 14.5t-36.5 -14.5t-20.5 -34.5t8 -34.5t32 -14.5z" />
    <glyph glyph-name="plusminus" unicode="&#xb1;" horiz-adv-x="499" 
d="M30 116l2 12h365l-2 -12h-365zM269 402h199l-2 -12h-199l-35 -199h-12l35 199h-199l2 12h199l35 199h12z" />
    <glyph glyph-name="acute" unicode="&#xb4;" horiz-adv-x="228" 
d="M41 538l-11 11l116 153l51 -49z" />
    <glyph glyph-name="mu" unicode="&#xb5;" horiz-adv-x="477" 
d="M370 484h78l-19 -107l-43 -242l-24 -136h-77l4 21q-42 -21 -82 -21q-39 0 -75 21l-25 -141h-77l45 256l22 122l40 226h77l-40 -226l-33 -189q-4 -24 18.5 -42t48.5 -18t55.5 18t33.5 42l54 309z" />
    <glyph glyph-name="paragraph" unicode="&#xb6;" horiz-adv-x="408" 
d="M377 641l-112 -640h-65l111 631h-96l-111 -631h-65l73 414h-30q-26 0 -40.5 18t-10.5 43l18 104q4 25 25 43t47 18h256z" />
    <glyph glyph-name="periodcentered" unicode="&#xb7;" horiz-adv-x="205" 
d="M146 301q-24 -22 -53.5 -23t-47.5 19t-14 49.5t28 51.5t53.5 23t47.5 -19t14 -49.5t-28 -51.5z" />
    <glyph glyph-name="guillemotright" unicode="&#xbb;" horiz-adv-x="676" 
d="M419 360l-7 -38l-383 -206l5 28l366 197l-296 197l5 28zM335 566l310 -206l-7 -38l-383 -206l5 28l366 197l-296 197z" />
    <glyph glyph-name="onequarter" unicode="&#xbc;" horiz-adv-x="829" 
d="M157 698l89 -1l-123 -699h-89l121 687l-120 -79l-5 8zM537 729h10l-330 -763h-10zM798 697l-96 -543h85l-2 -10h-85l-26 -147h-89l26 147h-235zM613 154l66 370l-283 -370h217z" />
    <glyph glyph-name="onehalf" unicode="&#xbd;" horiz-adv-x="910" 
d="M748 698q64 0 103 -46.5t25 -127.5q-26 -145 -307 -435h230l-16 -89h-297q87 110 122 155q91 116 127 198t51 171q6 32 8 54t1 50.5t-13.5 44t-35.5 15.5q-69 0 -98 -164l-8 -45h-89l8 45q14 81 69.5 127.5t119.5 46.5zM157 699l89 -1l-123 -699h-89l121 687l-120 -79
l-5 8zM535 730h10l-330 -763h-10z" />
    <glyph glyph-name="threequarters" unicode="&#xbe;" horiz-adv-x="1003" 
d="M973 698l-96 -543h85l-2 -10h-85l-26 -147h-89l26 147h-235zM788 155l66 370l-283 -370h217zM414 524l-1 2q-18 -102 -81 -154q43 -57 18 -199q-14 -81 -69.5 -127.5t-119.5 -46.5q-65 0 -102 45q-39 48 -25 128l8 45h89l-8 -45q-29 -164 41 -164q69 0 98 164
q16 99 5.5 147t-43.5 48h-19l2 10h16q24 0 39.5 12.5t32.5 40.5q18 29 30 94q29 164 -40 164q-70 0 -99 -164l-8 -45h-89l8 45q14 81 69.5 127.5t119.5 46.5t103 -46.5t25 -127.5zM708 731h10l-330 -763h-10z" />
    <glyph glyph-name="questiondown" unicode="&#xbf;" horiz-adv-x="400" 
d="M292 220h78l-7 -39q-15 -84 -73 -132.5t-124 -48.5t-107 48.5t-26 132.5q23 127 115 183q31 19 51.5 40.5t31.5 46.5t15.5 41.5t9.5 45.5l7 39h10l-7 -39q-17 -101 -34 -139q-19 -42 -51 -73q-52 -49 -69 -145q-4 -25 -6 -38.5t-4.5 -37t1 -37.5t9.5 -29t20.5 -22
t35.5 -7q29 0 50.5 15.5t34.5 44.5t19.5 52.5t12.5 58.5zM321 651q-18 -16 -40.5 -17t-35.5 14q-14 15 -11 37.5t21 38.5t40.5 17t35.5 -14q14 -15 11 -37.5t-21 -38.5z" />
    <glyph glyph-name="Agrave" unicode="&#xc0;" horiz-adv-x="475" 
d="M388 701l2 -46l38 -655h-92l-14 242h-183l-99 -242h-10l269 655l19 46h70zM143 252h-1h179l-12 207l-10 173zM380 949l62 -153l-15 -11l-116 115z" />
    <glyph glyph-name="Aacute" unicode="&#xc1;" horiz-adv-x="493" 
d="M388 701l2 -46l38 -655h-92l-14 242h-183l-99 -242h-10l269 655l19 46h70zM143 252h-1h179l-12 207l-10 173zM461 900l-156 -115l-11 11l116 153z" />
    <glyph glyph-name="Acircumflex" unicode="&#xc2;" horiz-adv-x="498" 
d="M388 701l2 -46l38 -655h-92l-14 242h-183l-99 -242h-10l269 655l19 46h70zM143 252h-1h179l-12 207l-10 173zM402 943l62 -152h-12l-60 145l-112 -145h-12l117 152h17z" />
    <glyph glyph-name="Atilde" unicode="&#xc3;" horiz-adv-x="591" 
d="M388 701l2 -46l38 -655h-92l-14 242h-183l-99 -242h-10l269 655l19 46h70zM143 252h-1h179l-12 207l-10 173zM498 940l2 1h60l-5 -30q-8 -43 -34.5 -75t-63.5 -42q-12 -3 -24 -3q-54 0 -76 55q-3 8 -8 34.5t-13 41.5t-24 13q-21 -2 -40 -98l-5 -30h-60l5 30q7 41 29 68.5
t54 35.5q36 9 69.5 -9.5t48.5 -55.5q2 -6 4.5 -20.5t4.5 -26.5t7 -21.5t12 -8.5q33 5 52 111z" />
    <glyph glyph-name="Adieresis" unicode="&#xc4;" horiz-adv-x="575" 
d="M388 701l2 -46l38 -655h-92l-14 242h-183l-99 -242h-10l269 655l19 46h70zM143 252h-1h179l-12 207l-10 173zM521 831q-18 -16 -40.5 -17t-35.5 14q-14 15 -11 37.5t21 38.5t40.5 17t35.5 -14q14 -15 11 -37.5t-21 -38.5zM306 831q-18 -16 -40.5 -17t-35.5 14
q-14 15 -11 37.5t21 38.5t40.5 17t35.5 -14q14 -15 11 -37.5t-21 -38.5z" />
    <glyph glyph-name="Aring" unicode="&#xc5;" horiz-adv-x="502" 
d="M388 701l2 -46l38 -655h-92l-14 242h-183l-99 -242h-10l269 655l19 46h70zM143 252h-1h179l-12 207l-10 173zM396 955q36 0 57 -25.5t14 -61.5t-37 -61.5t-66 -25.5t-57 25.5t-14 61.5t37 61.5t66 25.5zM429 867q4 20 -8 34.5t-32 14.5t-36.5 -14.5t-20.5 -34.5t8 -34.5
t32 -14.5t36.5 14.5t20.5 34.5z" />
    <glyph glyph-name="AE" unicode="&#xc6;" horiz-adv-x="742" 
d="M710 689v-1h-141l-57 -321h93l-2 -10h-93l-61 -347h140l-2 -10h-159v-1h-92l-14 242h-183l-99 -242h-10l269 655l19 46h70l3 -46l21 -353l70 398h230zM144 251h-1h179l-12 207l-10 173z" />
    <glyph glyph-name="Ccedilla" unicode="&#xc7;" 
d="M413 519l-91 1l4 21q27 148 -43 148q-69 0 -96 -148l-67 -380q-27 -148 44 -148q69 0 96 148l4 21h89l-4 -21q-10 -58 -55 -102t-103 -55q29 -43 10 -83q-24 -53 -94 -53h-25l2 10h25q11 0 24.5 6t17.5 16q15 36 2.5 67t-42.5 43q-44 17 -66.5 58t-13.5 92l67 380
q11 66 66 112.5t121 46.5t104.5 -46.5t27.5 -112.5z" />
    <glyph glyph-name="Egrave" unicode="&#xc8;" horiz-adv-x="413" 
d="M381 688h2h-141l-57 -321h93l-2 -10h-93l-61 -347h140l-2 -10h-230l123 698h230zM361 795l-15 -11l-116 115l69 49z" />
    <glyph glyph-name="Eacute" unicode="&#xc9;" horiz-adv-x="413" 
d="M381 688h2h-141l-57 -321h93l-2 -10h-93l-61 -347h140l-2 -10h-230l123 698h230zM380 899l-156 -115l-11 11l116 153z" />
    <glyph glyph-name="Ecircumflex" unicode="&#xca;" horiz-adv-x="413" 
d="M381 688h2h-141l-57 -321h93l-2 -10h-93l-61 -347h140l-2 -10h-230l123 698h230zM312 935l-113 -145h-12l117 152h17l63 -152h-12z" />
    <glyph glyph-name="Edieresis" unicode="&#xcb;" horiz-adv-x="490" 
d="M153 698h232l-2 -10h-141l-57 -321h93l-2 -10h-93l-61 -347h140l-2 -10h-230zM440 829q-18 -16 -40.5 -17t-35.5 14q-14 15 -11 37.5t21 38.5t40.5 17t35.5 -14q14 -15 11 -37.5t-21 -38.5zM225 829q-18 -16 -40.5 -17t-35.5 14q-14 15 -11 37.5t21 38.5t40.5 17
t35.5 -14q14 -15 11 -37.5t-21 -38.5z" />
    <glyph glyph-name="Igrave" unicode="&#xcc;" horiz-adv-x="320" 
d="M30 0l124 701h89l-124 -701h-89zM228 949l62 -153l-15 -11l-116 115z" />
    <glyph glyph-name="Iacute" unicode="&#xcd;" horiz-adv-x="338" 
d="M30 0l124 701h89l-124 -701h-89zM308 900l-156 -115l-11 11l116 153z" />
    <glyph glyph-name="Icircumflex" unicode="&#xce;" horiz-adv-x="343" 
d="M30 0l124 701h89l-124 -701h-89zM250 943l62 -152h-12l-60 145l-112 -145h-12l117 152h17z" />
    <glyph glyph-name="Idieresis" unicode="&#xcf;" horiz-adv-x="420" 
d="M30 0l124 701h89l-124 -701h-89zM368 831q-18 -16 -40.5 -17t-35.5 14q-14 15 -11 37.5t21 38.5t40.5 17t35.5 -14q14 -15 11 -37.5t-21 -38.5zM153 831q-18 -16 -40.5 -17t-35.5 14q-14 15 -11 37.5t21 38.5t40.5 17t35.5 -14q14 -15 11 -37.5t-21 -38.5z" />
    <glyph glyph-name="Ntilde" unicode="&#xd1;" horiz-adv-x="557" 
d="M389 212l86 489h10l-124 -701h-10l-193 673l-119 -673h-10l124 701h95zM466 941l62 1l-5 -30q-8 -43 -34.5 -75t-63.5 -42q-12 -3 -24 -3q-54 0 -76 55q-3 8 -8 34.5t-13 41.5t-24 13q-21 -2 -40 -98l-5 -30h-60l5 30q7 41 29 68.5t54 35.5q36 9 69.5 -9.5t48.5 -55.5
q2 -6 4.5 -20.5t4.5 -26.5t7 -21.5t12 -8.5q33 5 52 111z" />
    <glyph glyph-name="Ograve" unicode="&#xd2;" 
d="M286 698q66 0 104.5 -46.5t27.5 -112.5l-67 -380q-11 -66 -66 -112.5t-121 -46.5t-104.5 46.5t-27.5 112.5l67 380q11 66 66 112.5t121 46.5zM328 539q27 148 -44 148q-69 0 -96 -148l-67 -380q-27 -148 44 -148q69 0 96 148zM378 795l-15 -11l-116 115l69 49z" />
    <glyph glyph-name="Oacute" unicode="&#xd3;" 
d="M286 698q66 0 104.5 -46.5t27.5 -112.5l-67 -380q-11 -66 -66 -112.5t-121 -46.5t-104.5 46.5t-27.5 112.5l67 380q11 66 66 112.5t121 46.5zM328 539q27 148 -44 148q-69 0 -96 -148l-67 -380q-27 -148 44 -148q69 0 96 148zM396 898l-156 -115l-11 11l116 153z" />
    <glyph glyph-name="Ocircumflex" unicode="&#xd4;" 
d="M286 698q66 0 104.5 -46.5t27.5 -112.5l-67 -380q-11 -66 -66 -112.5t-121 -46.5t-104.5 46.5t-27.5 112.5l67 380q11 66 66 112.5t121 46.5zM328 539q27 148 -44 148q-69 0 -96 -148l-67 -380q-27 -148 44 -148q69 0 96 148zM328 935l-113 -145h-12l117 152h17l63 -152
h-12z" />
    <glyph glyph-name="Otilde" unicode="&#xd5;" horiz-adv-x="524" 
d="M286 698q66 0 104.5 -46.5t27.5 -112.5l-67 -380q-11 -66 -66 -112.5t-121 -46.5t-104.5 46.5t-27.5 112.5l67 380q11 66 66 112.5t121 46.5zM328 539q27 148 -44 148q-69 0 -96 -148l-67 -380q-27 -148 44 -148q69 0 96 148zM434 939l2 1h60l-5 -30q-8 -43 -34.5 -75
t-63.5 -42q-12 -3 -24 -3q-54 0 -76 55q-3 8 -8 34.5t-13 41.5t-24 13q-21 -2 -40 -98l-5 -30h-60l5 30q7 41 29 68.5t54 35.5q36 9 69.5 -9.5t48.5 -55.5q2 -6 4.5 -20.5t4.5 -26.5t7 -21.5t12 -8.5q33 5 52 111z" />
    <glyph glyph-name="Odieresis" unicode="&#xd6;" horiz-adv-x="508" 
d="M286 698q66 0 104.5 -46.5t27.5 -112.5l-67 -380q-11 -66 -66 -112.5t-121 -46.5t-104.5 46.5t-27.5 112.5l67 380q11 66 66 112.5t121 46.5zM328 539q27 148 -44 148q-69 0 -96 -148l-67 -380q-27 -148 44 -148q69 0 96 148zM456 829q-18 -16 -40.5 -17t-35.5 14
q-14 15 -11 37.5t21 38.5t40.5 17t35.5 -14q14 -15 11 -37.5t-21 -38.5zM241 829q-18 -16 -40.5 -17t-35.5 14q-14 15 -11 37.5t21 38.5t40.5 17t35.5 -14q14 -15 11 -37.5t-21 -38.5z" />
    <glyph glyph-name="multiply" unicode="&#xd7;" horiz-adv-x="422" 
d="M340 187l-10 -9l-120 146l-172 -146l-7 9l172 146l-120 146l10 9l120 -146l172 146l7 -9l-172 -146z" />
    <glyph glyph-name="Oslash" unicode="&#xd8;" 
d="M369 671q63 -47 48 -132l-67 -380q-11 -66 -66 -112.5t-121 -46.5q-42 0 -76 21l-23 -54h-10l26 59q-63 47 -48 132l67 380q11 66 66 112.5t121 46.5q42 0 76 -21l23 54h10zM121 158l-1 -1q-5 -30 -6 -52l221 510q-2 71 -51 71q-69 0 -96 -148zM259 157l68 381q5 30 6 52
l-221 -510q2 -71 51 -71q69 0 96 148z" />
    <glyph glyph-name="Ugrave" unicode="&#xd9;" horiz-adv-x="476" 
d="M356 699h90l-95 -540q-11 -66 -66 -112.5t-121 -46.5t-104.5 46.5t-27.5 112.5l95 540h89l-95 -540q-27 -148 44 -148q69 0 96 148zM379 795l-15 -11l-116 115l69 49z" />
    <glyph glyph-name="Uacute" unicode="&#xda;" horiz-adv-x="476" 
d="M356 699h90l-95 -540q-11 -66 -66 -112.5t-121 -46.5t-104.5 46.5t-27.5 112.5l95 540h89l-95 -540q-27 -148 44 -148q69 0 96 148zM397 899l-156 -115l-11 11l116 153z" />
    <glyph glyph-name="Ucircumflex" unicode="&#xdb;" horiz-adv-x="476" 
d="M356 699h90l-95 -540q-11 -66 -66 -112.5t-121 -46.5t-104.5 46.5t-27.5 112.5l95 540h89l-95 -540q-27 -148 44 -148q69 0 96 148zM329 935l-113 -145h-12l117 152h17l63 -152h-12z" />
    <glyph glyph-name="Udieresis" unicode="&#xdc;" horiz-adv-x="508" 
d="M261 159l96 540h89l-95 -540q-11 -66 -66 -112.5t-121 -46.5t-104.5 46.5t-27.5 112.5l95 540h89l-95 -540q-27 -148 44 -148q69 0 96 148zM457 830q-18 -16 -40.5 -17t-35.5 14q-14 15 -11 37.5t21 38.5t40.5 17t35.5 -14q14 -15 11 -37.5t-21 -38.5zM242 830
q-18 -16 -40.5 -17t-35.5 14q-14 15 -11 37.5t21 38.5t40.5 17t35.5 -14q14 -15 11 -37.5t-21 -38.5z" />
    <glyph glyph-name="agrave" unicode="&#xe0;" horiz-adv-x="413" 
d="M267 571l-1 1q58 0 92 -48.5t19 -132.5l-69 -390h-89l5 26q-45 -26 -85 -26q-17 0 -32 4q-38 10 -59 39.5t-19 69.5q5 95 146 165q61 30 101 42l12 69q30 171 -24 171t-84 -171h-89q15 84 66.5 132.5t109.5 48.5zM227 42l49 269q-28 -10 -61 -30q-44 -26 -64 -60.5
t-31 -94.5q-17 -93 14 -108q21 -9 47 -2t46 26zM352 666l-15 -11l-116 115l69 49z" />
    <glyph glyph-name="aacute" unicode="&#xe1;" horiz-adv-x="413" 
d="M267 571l-1 1q58 0 92 -48.5t19 -132.5l-69 -390h-89l5 26q-45 -26 -85 -26q-17 0 -32 4q-38 10 -59 39.5t-19 69.5q5 95 146 165q61 30 101 42l12 69q30 171 -24 171t-84 -171h-89q15 84 66.5 132.5t109.5 48.5zM227 42l49 269q-28 -10 -61 -30q-44 -26 -64 -60.5
t-31 -94.5q-17 -93 14 -108q21 -9 47 -2t46 26zM370 769l-156 -115l-11 11l116 153z" />
    <glyph glyph-name="acircumflex" unicode="&#xe2;" horiz-adv-x="413" 
d="M267 571l-1 1q58 0 92 -48.5t19 -132.5l-69 -390h-89l5 26q-45 -26 -85 -26q-17 0 -32 4q-38 10 -59 39.5t-19 69.5q5 95 146 165q61 30 101 42l12 69q30 171 -24 171t-84 -171h-89q15 84 66.5 132.5t109.5 48.5zM227 42l49 269q-28 -10 -61 -30q-44 -26 -64 -60.5
t-31 -94.5q-17 -93 14 -108q21 -9 47 -2t46 26zM302 805l-113 -145h-12l117 152h17l63 -152h-12z" />
    <glyph glyph-name="atilde" unicode="&#xe3;" horiz-adv-x="470" 
d="M267 571l-1 1q58 0 92 -48.5t19 -132.5l-69 -390h-89l5 26q-45 -26 -85 -26q-17 0 -32 4q-38 10 -59 39.5t-19 69.5q5 95 146 165q61 30 101 42l12 69q30 171 -24 171t-84 -171h-89q15 84 66.5 132.5t109.5 48.5zM227 42l49 269q-28 -10 -61 -30q-44 -26 -64 -60.5
t-31 -94.5q-17 -93 14 -108q21 -9 47 -2t46 26zM381 810l61 1v-30q0 -43 -21 -75t-56 -42q-12 -3 -24 -3q-53 0 -86 55q-5 8 -14.5 34.5t-20 41.5t-25.5 13q-23 -2 -23 -98v-30h-60v30q0 41 17 68.5t48 35.5q35 9 71 -9.5t58 -55.5q3 -6 10 -28t15 -36t17 -13q33 5 33 111
v30z" />
    <glyph glyph-name="adieresis" unicode="&#xe4;" horiz-adv-x="481" 
d="M267 571l-1 1q58 0 92 -48.5t19 -132.5l-69 -390h-89l5 26q-45 -26 -85 -26q-17 0 -32 4q-38 10 -59 39.5t-19 69.5q5 95 146 165q61 30 101 42l12 69q30 171 -24 171t-84 -171h-89q15 84 66.5 132.5t109.5 48.5zM227 42l49 269q-28 -10 -61 -30q-44 -26 -64 -60.5
t-31 -94.5q-17 -93 14 -108q21 -9 47 -2t46 26zM431 700q-18 -16 -40.5 -17t-35.5 14q-14 15 -11 37.5t21 38.5t40.5 17t35.5 -14q14 -15 11 -37.5t-21 -38.5zM216 700q-18 -16 -40.5 -17t-35.5 14q-14 15 -11 37.5t21 38.5t40.5 17t35.5 -14q14 -15 11 -37.5t-21 -38.5z
" />
    <glyph glyph-name="aring" unicode="&#xe5;" horiz-adv-x="413" 
d="M267 571l-1 1q58 0 92 -48.5t19 -132.5l-69 -390h-89l5 26q-45 -26 -85 -26q-17 0 -32 4q-38 10 -59 39.5t-19 69.5q5 95 146 165q61 30 101 42l12 69q30 171 -24 171t-84 -171h-89q15 84 66.5 132.5t109.5 48.5zM227 42l49 269q-28 -10 -61 -30q-44 -26 -64 -60.5
t-31 -94.5q-17 -93 14 -108q21 -9 47 -2t46 26zM275 648q-36 0 -57 25.5t-14 61.5t37 61.5t66 25.5t57 -25.5t14 -61.5t-37 -61.5t-66 -25.5zM242 736q-4 -20 8 -34.5t32 -14.5t36.5 14.5t20.5 34.5t-8 34.5t-32 14.5t-36.5 -14.5t-20.5 -34.5z" />
    <glyph glyph-name="ae" unicode="&#xe6;" horiz-adv-x="653" 
d="M592 271v-1h-207l-36 -206q-5 -27 9 -41q12 -14 38 -14q22 0 44.5 13t27.5 42l20 116h89l-7 -37q-12 -66 -65 -105t-112 -39q-47 0 -80 25l-4 -24h-89l5 26q-45 -26 -85 -26q-17 0 -32 4q-38 10 -59 39.5t-19 69.5q5 95 146 165q61 30 101 42l12 69q30 171 -24 171
t-84 -171h-89q15 84 66.5 132.5t109.5 48.5q66 0 98 -58q11 13 25 23q47 36 104 36q59 0 98 -39t27 -105zM427 505l-41 -225h118l40 225q5 29 -12 42t-40 13q-25 0 -42 -14q-18 -14 -23 -41zM226 40l49 269q-27 -10 -61 -30q-44 -26 -64 -60.5t-31 -94.5q-17 -93 14 -108
q21 -9 47 -2t46 26z" />
    <glyph glyph-name="ccedilla" unicode="&#xe7;" horiz-adv-x="412" 
d="M372 388l3 -2h-89l20 116q5 29 -12 42t-40 13q-25 0 -42 -14q-18 -14 -23 -41l-78 -441q-5 -27 9 -41q12 -14 38 -14q22 0 44.5 13t27.5 42l20 116h89l-7 -37q-10 -57 -50.5 -93.5t-92.5 -47.5q26 -42 8 -82q-24 -53 -94 -53h-25l2 10h25q11 0 24.5 6t17.5 16
q13 34 4 61.5t-34 42.5q-34 9 -55 32q-39 41 -27 109l50 283q12 67 65 109q47 36 104 36q60 0 98.5 -39t26.5 -105z" />
    <glyph glyph-name="egrave" unicode="&#xe8;" horiz-adv-x="412" 
d="M253 571l2 -2q59 0 98 -39t27 -105l-28 -156h-207l-36 -206q-5 -27 9 -41q12 -14 38 -14q22 0 44.5 13t27.5 42l20 116h89l-7 -37q-12 -66 -65 -105t-112 -39q-58 0 -92 36q-39 41 -27 109l50 283q12 67 65 109q47 36 104 36zM305 504h-1q5 29 -12 42t-40 13
q-25 0 -42 -14q-18 -14 -23 -41l-40 -225h118zM348 662l-15 -11l-116 115l69 49z" />
    <glyph glyph-name="eacute" unicode="&#xe9;" horiz-adv-x="412" 
d="M253 571l2 -2q59 0 98 -39t27 -105l-28 -156h-207l-36 -206q-5 -27 9 -41q12 -14 38 -14q22 0 44.5 13t27.5 42l20 116h89l-7 -37q-12 -66 -65 -105t-112 -39q-58 0 -92 36q-39 41 -27 109l50 283q12 67 65 109q47 36 104 36zM305 504h-1q5 29 -12 42t-40 13
q-25 0 -42 -14q-18 -14 -23 -41l-40 -225h118zM366 766l-156 -115l-11 11l116 153z" />
    <glyph glyph-name="ecircumflex" unicode="&#xea;" horiz-adv-x="412" 
d="M253 571l2 -2q59 0 98 -39t27 -105l-28 -156h-207l-36 -206q-5 -27 9 -41q12 -14 38 -14q22 0 44.5 13t27.5 42l20 116h89l-7 -37q-12 -66 -65 -105t-112 -39q-58 0 -92 36q-39 41 -27 109l50 283q12 67 65 109q47 36 104 36zM305 504h-1q5 29 -12 42t-40 13
q-25 0 -42 -14q-18 -14 -23 -41l-40 -225h118zM298 802l-113 -145h-12l117 152h17l63 -152h-12z" />
    <glyph glyph-name="edieresis" unicode="&#xeb;" horiz-adv-x="477" 
d="M253 571l2 -2q59 0 98 -39t27 -105l-28 -156h-207l-36 -206q-5 -27 9 -41q12 -14 38 -14q22 0 44.5 13t27.5 42l20 116h89l-7 -37q-12 -66 -65 -105t-112 -39q-58 0 -92 36q-39 41 -27 109l50 283q12 67 65 109q47 36 104 36zM305 504h-1q5 29 -12 42t-40 13
q-25 0 -42 -14q-18 -14 -23 -41l-40 -225h118zM426 697q-18 -16 -40.5 -17t-35.5 14q-14 15 -11 37.5t21 38.5t40.5 17t35.5 -14q14 -15 11 -37.5t-21 -38.5zM211 697q-18 -16 -40.5 -17t-35.5 14q-14 15 -11 37.5t21 38.5t40.5 17t35.5 -14q14 -15 11 -37.5t-21 -38.5z" />
    <glyph glyph-name="igrave" unicode="&#xec;" horiz-adv-x="294" 
d="M30 0l101 571h89l-101 -571h-89zM201 800l62 -153l-15 -11l-116 115z" />
    <glyph glyph-name="iacute" unicode="&#xed;" horiz-adv-x="312" 
d="M30 0l101 571h89l-101 -571h-89zM282 751l-156 -115l-11 11l116 153z" />
    <glyph glyph-name="icircumflex" unicode="&#xee;" horiz-adv-x="317" 
d="M30 0l101 571h89l-101 -571h-89zM223 794l62 -152h-12l-60 145l-112 -145h-12l117 152h17z" />
    <glyph glyph-name="idieresis" unicode="&#xef;" horiz-adv-x="393" 
d="M30 0l101 571h89l-101 -571h-89zM318 771q22 0 35.5 -15.5t9.5 -38.5t-22.5 -38.5t-40.5 -15.5t-35.5 15.5t-9.5 38.5t22.5 38.5t40.5 15.5zM127 681q-18 -16 -40.5 -17t-35.5 14q-14 15 -11 37.5t21 38.5t40.5 17t35.5 -14q14 -15 11 -37.5t-21 -38.5z" />
    <glyph glyph-name="ntilde" unicode="&#xf1;" horiz-adv-x="513" 
d="M297 571v1q55 0 84 -33q33 -38 21 -104l-77 -435h-89l91 514q5 27 -5 38q-9 9 -28 9q-28 0 -55 -15.5t-29 -31.5l-91 -514h-89l101 571h89l-3 -17q40 17 80 17zM423 792l2 1h60l-5 -30q-8 -43 -34.5 -75t-63.5 -42q-12 -3 -24 -3q-54 0 -76 55q-3 8 -8 34.5t-13 41.5
t-24 13q-21 -2 -40 -98l-5 -30h-60l5 30q7 41 29 68.5t54 35.5q36 9 69.5 -9.5t48.5 -55.5q2 -6 4.5 -20.5t4.5 -26.5t7 -21.5t12 -8.5q33 5 52 111z" />
    <glyph glyph-name="ograve" unicode="&#xf2;" horiz-adv-x="412" 
d="M253 571l2 -2q59 0 98 -39t27 -105l-50 -283q-12 -66 -65 -105t-112 -39q-58 0 -92 36q-39 41 -27 109l50 283q12 67 65 109q47 36 104 36zM305 504h-2q5 29 -12 42t-40 13q-25 0 -42 -14q-18 -14 -23 -41l-78 -441q-5 -27 9 -41q12 -14 38 -14q22 0 44.5 13t27.5 42z
M343 645l-15 -11l-116 115l69 49z" />
    <glyph glyph-name="oacute" unicode="&#xf3;" horiz-adv-x="412" 
d="M253 571l2 -2q59 0 98 -39t27 -105l-50 -283q-12 -66 -65 -105t-112 -39q-58 0 -92 36q-39 41 -27 109l50 283q12 67 65 109q47 36 104 36zM305 504h-2q5 29 -12 42t-40 13q-25 0 -42 -14q-18 -14 -23 -41l-78 -441q-5 -27 9 -41q12 -14 38 -14q22 0 44.5 13t27.5 42z
M362 748l-156 -115l-11 11l116 153z" />
    <glyph glyph-name="ocircumflex" unicode="&#xf4;" horiz-adv-x="412" 
d="M253 571l2 -2q59 0 98 -39t27 -105l-50 -283q-12 -66 -65 -105t-112 -39q-58 0 -92 36q-39 41 -27 109l50 283q12 67 65 109q47 36 104 36zM305 504h-2q5 29 -12 42t-40 13q-25 0 -42 -14q-18 -14 -23 -41l-78 -441q-5 -27 9 -41q12 -14 38 -14q22 0 44.5 13t27.5 42z
M294 787l-113 -145h-12l117 152h17l63 -152h-12z" />
    <glyph glyph-name="otilde" unicode="&#xf5;" horiz-adv-x="490" 
d="M253 571l1 -2q60 0 98.5 -39t26.5 -105l-50 -283q-11 -66 -63.5 -105t-112.5 -39q-58 0 -92 36q-39 41 -27 109l50 283q12 67 65 109q47 36 104 36zM304 504h-2q5 29 -12 42t-40 13q-25 0 -42 -14q-18 -14 -23 -41l-78 -441q-5 -27 9 -41q12 -14 38 -14q22 0 44.5 13
t27.5 42zM399 792l2 1h60l-5 -30q-8 -43 -34.5 -75t-63.5 -42q-12 -3 -24 -3q-54 0 -76 55q-3 8 -8 34.5t-13 41.5t-24 13q-21 -2 -40 -98l-5 -30h-60l5 30q7 41 29 68.5t54 35.5q36 9 69.5 -9.5t48.5 -55.5q2 -6 4.5 -20.5t4.5 -26.5t7 -21.5t12 -8.5q33 5 52 111z" />
    <glyph glyph-name="odieresis" unicode="&#xf6;" horiz-adv-x="477" 
d="M253 571l1 -2q60 0 98.5 -39t26.5 -105l-50 -283q-11 -66 -63.5 -105t-112.5 -39q-58 0 -92 36q-39 41 -27 109l50 283q12 67 65 109q47 36 104 36zM304 504h-2q5 29 -12 42t-40 13q-25 0 -42 -14q-18 -14 -23 -41l-78 -441q-5 -27 9 -41q12 -14 38 -14q22 0 44.5 13
t27.5 42zM423 693q-18 -16 -40.5 -17t-35.5 14q-14 15 -11 37.5t21 38.5t40.5 17t35.5 -14q14 -15 11 -37.5t-21 -38.5zM208 693q-18 -16 -40.5 -17t-35.5 14q-14 15 -11 37.5t21 38.5t40.5 17t35.5 -14q14 -15 11 -37.5t-21 -38.5z" />
    <glyph glyph-name="divide" unicode="&#xf7;" horiz-adv-x="428" 
d="M32 354h365l-2 -12h-365zM271 453q-18 -16 -40.5 -17t-35.5 14q-14 15 -11 37.5t21 38.5t40.5 17t35.5 -14q14 -15 11 -37.5t-21 -38.5zM221 170q-18 -16 -40.5 -17t-35.5 14q-14 15 -11 37.5t21 38.5t40.5 17t35.5 -14q14 -15 11 -37.5t-21 -38.5z" />
    <glyph glyph-name="oslash" unicode="&#xf8;" horiz-adv-x="412" 
d="M326 553l2 1q67 -41 52 -125l-50 -283q-12 -66 -65 -105t-112 -39q-33 0 -60 12l-16 -38h-10l18 42q-13 8 -24 18q-39 41 -27 109l50 283q12 67 65 109q47 36 104 36q35 0 65 -15l17 40h10zM227 67l74 430l-194 -449q1 -13 10 -22q12 -14 38 -14q22 0 44.5 13t27.5 42z
M110 78l193 448q-3 20 -18.5 28.5t-33.5 8.5q-25 0 -42 -14q-18 -14 -23 -41z" />
    <glyph glyph-name="ugrave" unicode="&#xf9;" horiz-adv-x="436" 
d="M316 571h89l-101 -571h-89l3 17q-40 -17 -80 -17q-56 0 -84 33q-33 38 -21 104l77 435h89l-91 -514q-5 -27 5 -38q9 -10 28 -10q28 0 55 15.5t29 31.5zM348 664l-15 -11l-116 115l69 49z" />
    <glyph glyph-name="uacute" unicode="&#xfa;" horiz-adv-x="436" 
d="M316 571h89l-101 -571h-89l3 17q-40 -17 -80 -17q-56 0 -84 33q-33 38 -21 104l77 435h89l-91 -514q-5 -27 5 -38q9 -10 28 -10q28 0 55 15.5t29 31.5zM394 768l-136 -115l-13 11l89 153z" />
    <glyph glyph-name="ucircumflex" unicode="&#xfb;" horiz-adv-x="436" 
d="M316 571h89l-101 -571h-89l3 17q-40 -17 -80 -17q-56 0 -84 33q-33 38 -21 104l77 435h89l-91 -514q-5 -27 5 -38q9 -10 28 -10q28 0 55 15.5t29 31.5zM276 804l-87 -145h-12l90 152h17l90 -152h-12z" />
    <glyph glyph-name="udieresis" unicode="&#xfc;" horiz-adv-x="479" 
d="M226 57l91 514h89l-101 -571h-89l3 17q-40 -17 -80 -17q-55 0 -84 33q-33 38 -21 104l77 435h89l-91 -514q-5 -27 5 -38q9 -10 28 -10q28 0 55 15.5t29 31.5zM428 699q-18 -16 -40.5 -17t-35.5 14q-14 15 -11 37.5t21 38.5t40.5 17t35.5 -14q14 -15 11 -37.5t-21 -38.5z
M213 699q-18 -16 -40.5 -17t-35.5 14q-14 15 -11 37.5t21 38.5t40.5 17t35.5 -14q14 -15 11 -37.5t-21 -38.5z" />
    <glyph glyph-name="OE" unicode="&#x152;" horiz-adv-x="685" 
d="M653 688h4h-141l-57 -321h93l-2 -10h-93l-61 -347h140l-2 -10h-230l14 81q-28 -37 -69 -59t-84 -22q-66 0 -104.5 46.5t-27.5 112.5l67 380q11 66 66 112.5t121 46.5q43 0 76 -22t48 -59l14 81h230zM265 159l67 380q27 148 -44 148q-69 0 -96 -148l-67 -380
q-27 -148 44 -148q69 0 96 148z" />
    <glyph glyph-name="oe" unicode="&#x153;" horiz-adv-x="645" 
d="M584 271l-205 -6l-36 -206q-5 -27 9 -41q12 -14 38 -14q22 0 44.5 13t27.5 42l20 116h89l-7 -37q-12 -66 -65 -105t-112 -39q-58 0 -92 36q-9 9 -14 18q-54 -52 -127 -52q-58 0 -92 36q-39 41 -27 109l50 283q12 67 65 109q47 36 104 36q74 0 109 -52q8 8 20 18
q47 36 104 36q59 0 98 -39t27 -105zM420 500l-41 -225h118l40 225q5 29 -12 42t-40 13q-25 0 -42 -14q-18 -14 -23 -41zM225 59l76 441q5 29 -12 42t-40 13q-25 0 -42 -14q-18 -14 -23 -41l-78 -441q-5 -27 9 -41q12 -14 38 -14q22 0 44.5 13t27.5 42z" />
    <glyph glyph-name="uni2c5" unicode="&#x2c5;" horiz-adv-x="257" 
d="M110 551h-16l-63 152h12l60 -145l112 145h12z" />
    <glyph glyph-name="beta" unicode="&#x3b2;" horiz-adv-x="473" 
d="M335 368l-2 5q79 -40 63 -135l-11 -63q-16 -88 -70.5 -130t-131.5 -42h-8l2 10h8q20 0 36 8t27.5 24t19 31t13.5 37t8.5 33t5.5 28l11 63q3 16 4 25.5t2.5 27.5t-2 29t-10 23t-20 18t-33.5 6h-8l2 10q28 0 47.5 10.5t30 30.5t14.5 34t8 38l7 38q29 161 -54 161
q-23 0 -41.5 -16t-22.5 -38l-29 -163l-17 -96l-2 -10l-62 -354l-2 -10h-89l8 45l54 304l7 37l45 257q4 22 22.5 38t41.5 16h89q76 0 116.5 -43t25.5 -129l-7 -38q-14 -85 -96 -120z" />
    <glyph glyph-name="uni482" unicode="&#x482;" horiz-adv-x="501" 
d="M468 423h-181l-65 -149h219l-2 -12h-222l-128 -295h-10l128 295h-178l2 12h181l65 149h-219l2 12h222l128 295h10l-128 -295h178z" />
    <glyph glyph-name="quoteleft" unicode="&#x2018;" horiz-adv-x="128" 
d="M55 539q-20 0 -24 15.5t2 38.5q5 28 18.5 55.5t24.5 41.5l12 13h5q-25 -35 -35 -64q2 1 4 2.5t2.5 2.5t2 1.5l3 1t4.5 0.5q20 0 23.5 -15.5t-2.5 -38.5q-3 -19 -6 -28.5t-11.5 -17.5t-22.5 -8z" />
    <glyph glyph-name="quotedblleft" unicode="&#x201c;" horiz-adv-x="250" 
d="M74 646q20 0 23.5 -16t-2.5 -38q-3 -19 -6 -28.5t-11.5 -17.5t-22.5 -8q-20 0 -24 16t2 38q5 28 18.5 55.5t24.5 40.5l12 14h5q-25 -35 -35 -64q2 1 4 2.5t2.5 2.5t2 1.5l3 1t4.5 0.5zM196 646q20 0 23.5 -16t-2.5 -38q-3 -19 -6 -28.5t-11.5 -17.5t-22.5 -8
q-20 0 -24 16t2 38q5 28 18.5 55.5t24.5 40.5l12 14h5q-25 -35 -35 -64q2 1 4 2.5t2.5 2.5t2 1.5l3 1t4.5 0.5z" />
    <glyph glyph-name="perthousand" unicode="&#x2030;" horiz-adv-x="893" 
d="M251 446q-7 -39 -43.5 -66t-83.5 -27q-46 0 -73.5 27t-20.5 66l32 181q7 39 43.5 66t83.5 27q46 0 73.5 -27t20.5 -66zM205 627q1 6 2 16t1.5 27t-5 28.5t-16.5 11.5q-31 0 -48 -83l-32 -181q-1 -6 -2 -16t-1.5 -27t5 -28.5t16.5 -11.5q31 0 48 83zM511 411
q46 0 73.5 -27t20.5 -66l-32 -181q-7 -39 -43.5 -66t-83.5 -27q-46 0 -73.5 27t-20.5 66l32 181q7 39 43.5 66t83.5 27zM527 318q1 6 2 16t1.5 27t-5 28.5t-16.5 11.5q-31 0 -48 -83l-32 -181q-1 -6 -2 -16t-1.5 -27t5 -28.5t16.5 -11.5q31 0 48 83zM766 411q46 0 73.5 -27
t20.5 -66l-32 -181q-7 -39 -43.5 -66t-83.5 -27q-46 0 -73.5 27t-20.5 66l32 181q7 39 43.5 66t83.5 27zM782 318q1 6 2 16t1.5 27t-5 28.5t-16.5 11.5q-31 0 -48 -83l-32 -181q-1 -6 -2 -16t-1.5 -27t5 -28.5t16.5 -11.5q31 0 48 83zM477 764h10l-330 -763h-10z" />
    <glyph glyph-name="Euro" unicode="&#x20ac;" horiz-adv-x="496" 
d="M459 518h-90l4 21q27 148 -43 148q-69 0 -96 -148l-21 -118h148l-2 -12h-148l-21 -121h148l-2 -12h-148l-21 -118q-27 -148 44 -148q69 0 96 148l4 21h89l-4 -21q-11 -66 -66 -112.5t-121 -46.5t-104.5 46.5t-27.5 112.5l21 118h-69l2 12h69l21 121h-69l2 12h69l21 118
q11 66 66 112.5t121 46.5t104.5 -46.5t27.5 -112.5z" />
    <glyph glyph-name="trademark" unicode="&#x2122;" horiz-adv-x="295" 
d="M119 440l1 -3h-30l-34 -192h-25l34 192h-30v3h84zM241 440h25l-1 -3l-2 -13l-32 -179h-25l33 187l-65 -111l-26 111l-33 -187h-3l32 179l2 13l1 3h27l19 -82z" />
    <glyph glyph-name="NULL" horiz-adv-x="0" 
 />
    <glyph glyph-name="CR" horiz-adv-x="340" 
 />
    </font>
</defs>
</svg>
